<svg id="Layer_1" data-name="Layer 1" xmlns="http://www.w3.org/2000/svg" viewBox="0 0 1816.67 620.77"><defs><style>.cls-1,.cls-4{fill:#393185;}.cls-2{fill:#fefefe;}.cls-3{fill:#e5e0e0;}.cls-4{font-size:223px;font-family:Poppins-Bold, Poppins;font-weight:700;}.cls-5{font-family:Poppins-SemiBold, Poppins;font-weight:600;}.cls-6{font-family:Poppins-Light, Poppins;font-weight:300;}</style></defs><path class="cls-1" d="M476.77,914.58a141.93,141.93,0,1,0,41.56,100.35,141.48,141.48,0,0,0-41.56-100.35M376.42,735.17a279.78,279.78,0,1,1-197.81,82A278.88,278.88,0,0,1,376.42,735.17Z" transform="translate(-96.67 -730.43)"/><path class="cls-1" d="M677.94,1044.79l137,137a68.93,68.93,0,1,1-97.48,97.47l-91.88-91.88a301.31,301.31,0,0,0,52.38-142.57m-52.38-202.3,91.88-91.88a68.93,68.93,0,1,1,97.48,97.48l-137,137A301.25,301.25,0,0,0,625.56,842.49Z" transform="translate(-96.67 -730.43)"/><path class="cls-1" d="M336.27,943.92h-1.39q-14.25.8-15.58-18.41a1.32,1.32,0,0,1,1.15.35q6.94,6.6,8.81,7.18a11.75,11.75,0,0,0,7.47.9q5.82-.44,33.24-15.87a13.46,13.46,0,0,1,5.43-1.23,18.14,18.14,0,0,1,7,1.66q27.53,15.32,31.64,14.54a9.76,9.76,0,0,0,6.74-1.1A11,11,0,0,0,423.1,930l4.59-5.65q2.52,18.35-16.76,18.43,1.31.77,6.39,7.85a7.44,7.44,0,0,0,3.19,1.84,10.6,10.6,0,0,0,7.1-.62l10.39-7.4a24.78,24.78,0,0,1,8.14-2.66q17.55-2.18,25.91,1.77Q482,950,480.58,956q-2.41,9.62-13.58,18-12.33,9.13-17.9,10a11.74,11.74,0,0,1-6.18-.3q-1.28-.12-11.14-5.67a8.36,8.36,0,0,0-3.32-.84q-3.43-.35-7.42,6.58a130.3,130.3,0,0,0,40.43,38.28,68.9,68.9,0,0,0,14.84,7.39l29.6,7.2A130.28,130.28,0,0,1,392.57,1145.6q-4.69-23.92-8-32.14-3.35-9.46-12-19.54-10.2.64-14.58-2.15-5.11-2.76-12.64-9.94-7.8-1.08-11.36-3.53c-2.22-1.83-3.51-3.51-3.87-5q-2.08-4.71-1-14.52a70.21,70.21,0,0,1,7-20.32l-.29-11.12a29.12,29.12,0,0,0-1.93-9.36c-.35-1.52-2.54-4.65-6.54-9.41a10.43,10.43,0,0,1-1.31-3.29,19.11,19.11,0,0,1-.41-5.32,12,12,0,0,1,1.64-5.55,2.45,2.45,0,0,0-.27-1.51l-1.21-2a7.93,7.93,0,0,1-5.57,1.53q5.28-2.34,6-4.08-4.17,4-10.07.53,4.91,0,6.72-2.65a5.78,5.78,0,0,1-4.13-2.35,6.49,6.49,0,0,0,3.89.57l-2.5-1,2.37.23-1.82-1.4q3.85,1.71,2.21-.62c-2.53-1.77-4.24-2.46-5.13-2.05l-10.91,5.16a14.17,14.17,0,0,1-4.44,1q-3.26.4-9.59-2.4-15.68-7-24.55-27.52-4.33-10.17,25.5-12.94a32.32,32.32,0,0,1,12,2.3q5.61,2,15.79,9.93a4.32,4.32,0,0,0,2.79.55q1.14,1.5,11.88-11.71" transform="translate(-96.67 -730.43)"/><path class="cls-2" d="M396,937.33l.76.45q4.65,2.38,5.46,5.77c.05.33-.17.52-.66.56-2.82-.43-4.32-.51-4.49-.24-.74.34-.82,1.12-.23,2.32a10.06,10.06,0,0,0,2.06,2.51q7.47,6,8.25,7.3c1.54,2.15,2.1,3.82,1.67,5a1.68,1.68,0,0,1-.81,1,29.58,29.58,0,0,0-9.92,5.06,34.76,34.76,0,0,0-7.87,8.05,29.19,29.19,0,0,0-4.08,8.19c-.41.89-.69,3.52-.86,7.89a9.53,9.53,0,0,1-.63,2.22,16.88,16.88,0,0,1-1.87,3.19l-7.29,9.24a9.72,9.72,0,0,0-1.77,5.27l.23,2.15,1.37,6.23.27,7.17a6.78,6.78,0,0,0,1,2.83,10.41,10.41,0,0,0,2.43,2.45q10.28,6.36,11.12,7.87a29,29,0,0,1,6.35,10.13q5.25,13.44,2.27,21.36-1.8,5.49-11.43,6.54L369,1078q-21.12,1.11-22.6.85-6.64-.15-9.5-2a11.73,11.73,0,0,1-5-8.51q-.61-3.33,3.07-19.63,1.74-5.73,3.43-7.48a14.18,14.18,0,0,1,2-2q6.45-4.65,6.85-5.4A29,29,0,0,0,352,1027q3.89-6.48,3.47-16.66-1.65-17.8-7.84-31-3.45-7.53-7-11a11,11,0,0,0-2.46-1.82q-.54-.56-4.85-1.42c-.19,0-.47-.23-.86-.66-.57-1-.4-2.53.49-4.77a14.11,14.11,0,0,1,2.05-3q9.74-11.19,10-11.8a19.94,19.94,0,0,0,2.19-3.22c.61-1.3.12-1.63-1.48-1a8.33,8.33,0,0,0-1.78,1.19l-3.19,2.9c-.69-.15-.51-1.05.53-2.67a14.84,14.84,0,0,1,7.45-5.27q10.29-4,33.06,3.82c.15,0,.09-.08-.16-.28l-2.44-1.7c-.22-.24-.26-.35-.12-.31l5.41,1.32-3.58-2.89c-1-1.3-1.37-2.15-1.05-2.57,2.32,2.21,3.91,3.38,4.76,3.49.39.09.56,0,.51-.23-.81-1.32-1.08-1.88-.81-1.66,2.51,1.29,3.9,1.88,4.16,1.75a27.69,27.69,0,0,1,6,.64c.62.08.71-.41.26-1.47,0-.1.45.12,1.29.67" transform="translate(-96.67 -730.43)"/><path class="cls-2" d="M377.87,1089.15l.11-.07q5.31-3.27,7.18-5.57a3,3,0,0,0,.74-1.78c.09-.3-.32-.62-1.24-1a6.17,6.17,0,0,0-2.1-.19l-2,.16-2.78.13-6.87.47c-1.91.1-3.06.15-3.44.14-.63,0-1.59,0-2.89,0-5.77-.17-9-.23-9.79-.18-1.65-.13-2.52-.18-2.62-.16a3.4,3.4,0,0,0-1.62.3c-.68.54-.85,1-.51,1.51a3.31,3.31,0,0,0,.61.64c1,.82,1.78,1.41,2.32,1.77a57.25,57.25,0,0,0,5.54,3.25,33.23,33.23,0,0,0,3.33,1.49,20.47,20.47,0,0,0,2.29.76,20.69,20.69,0,0,0,2.31.5l1.17.13a14,14,0,0,0,2.84,0,36.33,36.33,0,0,0,7.43-2.27" transform="translate(-96.67 -730.43)"/><path class="cls-1" d="M387.29,1051.52l0,.14q-.15,3.18-3.36,7.19a10.67,10.67,0,0,1-2.35,2.09,16.21,16.21,0,0,1-3.39,1.63,1.89,1.89,0,0,0-.76.69c-.3.72,0,1.29,1,1.73a3.87,3.87,0,0,0,1.58.4,9.16,9.16,0,0,0,1.77-.23c.06,0,.09,0,.11,0-.1.9-1.07,1.31-2.88,1.24a8.11,8.11,0,0,1-4.72-2.5,4.61,4.61,0,0,1-.8-4.1,10.32,10.32,0,0,1,2.34-4.56,5.33,5.33,0,0,1,1.52-.89,47.37,47.37,0,0,1,5.41-1.61,1.54,1.54,0,0,0,.78-.54,3,3,0,0,0,.39-2.61,3.12,3.12,0,0,0-1.4-2.06,5.94,5.94,0,0,0-3.11-.64l-5.87.22q-10,.69-10.59.58-6.09,0-15.7-.81a8.22,8.22,0,0,0-2.95.38,3.78,3.78,0,0,0-2.26,2.18,3.14,3.14,0,0,0,.41,3,2.59,2.59,0,0,0,1.15,1,1.88,1.88,0,0,0,.63,0,6.47,6.47,0,0,1,2.17-.2,8.87,8.87,0,0,1,2.88,1.25,7,7,0,0,1,3.18,4.86,5.71,5.71,0,0,1-1.08,4.69,4.83,4.83,0,0,1-4.3,2.2,13.56,13.56,0,0,1-2.27-.3c-.21-.06-.32-.15-.34-.29s0-.07.1-.09a10,10,0,0,0,1.45-.35l.83-.42c.8-.52,1.17-1.07,1.11-1.64a.87.87,0,0,0-.34-.38l-1.41-.61c-1.61-1-2.67-1.66-3.16-2a10.48,10.48,0,0,1-2.3-2.15,10.79,10.79,0,0,1-1.94-7.86,6.53,6.53,0,0,1,2.06-4.11,11.43,11.43,0,0,1,4.85-1.79,23.79,23.79,0,0,1,4-.22c8.39.45,13.8.65,16.26.6a94,94,0,0,0,9.68-.73c1.08-.07,2-.1,2.88-.07a16.68,16.68,0,0,1,3.43.39,7.25,7.25,0,0,1,2.87,1.63,7.85,7.85,0,0,1,2.44,5.59" transform="translate(-96.67 -730.43)"/><path class="cls-1" d="M341.58,1066.47l.12.22c1.17,2,2.19,3.13,3.05,3.37a5.6,5.6,0,0,0,4.14-.07q4.46-1.77,5.61-5.1a6.61,6.61,0,0,0,.08-3.33l-.42-1.41-1.48-3.25a.56.56,0,0,1,.3.1,24.06,24.06,0,0,0,2.16,1.24,9.18,9.18,0,0,0,1.3.51,9.7,9.7,0,0,0,3.58.26c.56,0,1.08-.12,1.55-.21l3.05-.65.88-.06a25,25,0,0,0,2.56,0,7,7,0,0,0,1.55-.24,5.39,5.39,0,0,0,1.56-.72,19.81,19.81,0,0,0,2.33-1.9.54.54,0,0,1,.25-.13c.13,0,.07.27-.18.94a46,46,0,0,0-1.92,4.66,10.93,10.93,0,0,0-.46,2.28q-.3,1.66,1.59,3.9a9,9,0,0,0,6.05,3.1,4.14,4.14,0,0,0,2.12-.74,14.46,14.46,0,0,0,2.8-2.74c.15-.13.24-.16.29-.08.12.38-.19,1.24-.92,2.6a9.21,9.21,0,0,1-1.78,2.19,7.88,7.88,0,0,1-4.91,2.13,5.06,5.06,0,0,1-1.48-.24l-2.59-1c-.3-.12-.61-.21-.92-.3a7,7,0,0,0-1.61-.19,12.42,12.42,0,0,0-1.9.13l-4.4.69c-.69.08-1.34.12-1.94.13a11.92,11.92,0,0,1-1.87-.1,22.59,22.59,0,0,1-2.63-.56,3.48,3.48,0,0,0-.83,0,3.08,3.08,0,0,0-.91.19l-2.31.9a9.81,9.81,0,0,1-1.31.29,12.33,12.33,0,0,1-4-.19q-5.17-1.07-6.19-6.52" transform="translate(-96.67 -730.43)"/><path class="cls-2" d="M417.26,984.07l-.38-.23a9.48,9.48,0,0,0-8.53-1.43,8.7,8.7,0,0,0-2.4,1.13,9.57,9.57,0,0,0-1.44,1.2,14.87,14.87,0,0,0-1.77,2.22,31.44,31.44,0,0,0-1.58,2.72l-3,6.14c-.59,1.09-1,1.55-1.18,1.39-.34-.58-.31-2.11.09-4.57a18,18,0,0,1,1.6-5.28A11.9,11.9,0,0,1,401,984.2a32.3,32.3,0,0,1,4.72-3.75q3.66-2.37,6.21-1.42a7,7,0,0,1,2.26,1.48,29.61,29.61,0,0,1,3.07,3.56" transform="translate(-96.67 -730.43)"/><path class="cls-2" d="M409.91,985.62v0a2.7,2.7,0,0,0-.17-.59,2.3,2.3,0,0,0-.39-.55l-.18-.13-.09-.06-.2-.07-.22,0a2,2,0,0,0-.35,0,2.8,2.8,0,0,0-.67.28c-.12.07-.44.27-.95.63l-.71.42a2.22,2.22,0,0,0-.27.19.76.76,0,0,0-.33.74q.06.28.75.45c.35.07.74.16,1.15.27l.38.07a2.35,2.35,0,0,0,.83,0,1.39,1.39,0,0,0,.44-.15,1.71,1.71,0,0,0,.47-.38,2.41,2.41,0,0,0,.33-.5,2.72,2.72,0,0,0,.19-.62" transform="translate(-96.67 -730.43)"/><path class="cls-2" d="M411.47,986.18h0c-.21.16-.4.31-.56.46-.48.51-.75.82-.81.91l-.2.31-.08.17a1.12,1.12,0,0,0-.12.35l0,.17v.15l0,.14.06.13a1.42,1.42,0,0,0,.49.45,2,2,0,0,0,.64.24.7.7,0,0,0,.27,0,.5.5,0,0,0,.14-.08l.07-.06a.86.86,0,0,0,.1-.16,1.71,1.71,0,0,0,.19-.47,2.7,2.7,0,0,0,.12-.55,3.71,3.71,0,0,0,0-.47,3.39,3.39,0,0,0,0-.48,4.54,4.54,0,0,0-.05-.54,2.59,2.59,0,0,0-.31-.69" transform="translate(-96.67 -730.43)"/><path class="cls-2" d="M397.81,1002.85l0-.06a26.94,26.94,0,0,1,1.93-4.83,5,5,0,0,1,1.84-2.09,3.18,3.18,0,0,1,.87-.29,6.52,6.52,0,0,1,1.35-.08c.13,0,.52,0,1.2.13,1.37.21,2.17.33,2.42.35l2.12.12h.73a4,4,0,0,0,1-.16,5.08,5.08,0,0,0,.95-.48.55.55,0,0,1,.18-.05.05.05,0,0,1,.07,0l0,.29,0,.28a1.51,1.51,0,0,1-.29.5l-.23.23a3.45,3.45,0,0,1-.57.41,6.82,6.82,0,0,1-1.74.7,7,7,0,0,1-1.35.13c-.17,0-1.05,0-2.65-.17a8.32,8.32,0,0,0-1.11,0,5,5,0,0,0-1.88.51,8,8,0,0,0-2,1.33,10.89,10.89,0,0,0-1.1,1.16,18.53,18.53,0,0,1-1.33,1.72,3,3,0,0,1-.31.31.17.17,0,0,1-.12,0" transform="translate(-96.67 -730.43)"/><path class="cls-2" d="M417.28,1011.5v.08a9.56,9.56,0,0,1,0,3q-.12,1.74-.86,8.72l-.61,7c-.14,1.56-.31,3.12-.5,4.68a51.43,51.43,0,0,1-1.9,9.07,29.6,29.6,0,0,1-1.69,4.23,60.73,60.73,0,0,1-4.21,6.84,21.66,21.66,0,0,1-4.53,4.55c-.6.37-.93.27-1-.33a2.66,2.66,0,0,1,.59-2,32.43,32.43,0,0,0,5.69-7,36.24,36.24,0,0,0,3.32-6.82,35.13,35.13,0,0,0,1.59-7.78c.13-1.34.22-2.68.27-4l.23-8.11.1-2a25.65,25.65,0,0,1,.38-3.09,24,24,0,0,1,1.74-5.38c.44-1,.89-1.5,1.37-1.51" transform="translate(-96.67 -730.43)"/><path class="cls-2" d="M414.39,988.85h0s-.27.67-.7,1.87c-.15.4-.26.66-.32.8a12.23,12.23,0,0,1-.79,1.44,6.69,6.69,0,0,1-.83,1c-.33.33-.9.82-1.7,1.48a10.32,10.32,0,0,0,2.05-1.16,5.68,5.68,0,0,0,1.37-1.47,7.89,7.89,0,0,0,.64-1.79,12.22,12.22,0,0,0,.25-1.38c0-.31.06-.51.07-.62s0-.14,0-.17" transform="translate(-96.67 -730.43)"/><path class="cls-2" d="M417.46,988.61h0a8.42,8.42,0,0,0,.3,1.06l.71,2.12.35,1.07.16.55.25.91c.16.49.3,1,.41,1.4.05.16.16.66.33,1.49l.36,2,.19.93a2.91,2.91,0,0,1,0,.31,2.93,2.93,0,0,1,0-.3c.05-.51.08-.87.08-1.09,0-.44,0-.81,0-1.1a19.1,19.1,0,0,0-.2-2.38,13.45,13.45,0,0,0-.29-1.5,17.18,17.18,0,0,0-.62-1.64c-.43-1-.82-1.79-1.18-2.44-.54-1-.85-1.47-.91-1.43" transform="translate(-96.67 -730.43)"/><path class="cls-2" d="M341.52,1000.56l-.06,0c-.36-.22-.65-.39-.85-.53a15.27,15.27,0,0,0-1.49-1,4,4,0,0,0-1.43-.53,6.53,6.53,0,0,0-1.71,0q-.47.06-.93.15l-1.85.38-.47.08c-.31.05-.62.09-.94.11l-.47,0a4.34,4.34,0,0,1-.58-.07,4.62,4.62,0,0,1-.6-.19l-.29-.14a2.56,2.56,0,0,1-.94-.76,1.4,1.4,0,0,1-.21-.49c0-.26,0-.4.08-.42a.52.52,0,0,1,.25,0l.7.23a2.08,2.08,0,0,0,.35.06,4.71,4.71,0,0,0,1.12,0l.71-.13,2.28-.53.85-.22,1.78-.52a3.29,3.29,0,0,1,1.21-.1,4.36,4.36,0,0,1,2.4,1.88,13.6,13.6,0,0,1,1.16,2c.15.46.13.74-.07.84" transform="translate(-96.67 -730.43)"/><path class="cls-2" d="M343.74,997.74h0c-.1,0-.34-.24-.71-.83a38.86,38.86,0,0,1-1.95-3.57,10.77,10.77,0,0,1-.53-1.37c-.44-1.58-.72-2.53-.84-2.83s-.24-.6-.38-.9a6.38,6.38,0,0,0-1.73-2.14,18.24,18.24,0,0,0-6.14-3.33,7,7,0,0,0-1.94-.22,15.53,15.53,0,0,0-3.33.59.69.69,0,0,1-.55-.15c-.08-.23.2-.6.86-1.14a4.42,4.42,0,0,1,1.64-.82,8.38,8.38,0,0,1,3.94.25,14.68,14.68,0,0,1,2.51,1,6.49,6.49,0,0,1,1.39.93,34.33,34.33,0,0,1,4.34,5.17,17.11,17.11,0,0,1,2.16,4,20.24,20.24,0,0,1,1.29,5.41" transform="translate(-96.67 -730.43)"/><path class="cls-2" d="M331,987.27h0a3,3,0,0,1-.32-.59,2.6,2.6,0,0,1-.11-.63,1.07,1.07,0,0,1,.07-.41.64.64,0,0,1,.27-.36.84.84,0,0,1,.23-.12,2,2,0,0,1,.39-.09l.29,0,1-.06a1.48,1.48,0,0,1,.5.08.72.72,0,0,1,.36.24.49.49,0,0,1,.08.18.64.64,0,0,1,0,.3,3.79,3.79,0,0,1-.13.88,1.4,1.4,0,0,1-.49,1,1.32,1.32,0,0,1-.92.12,3.65,3.65,0,0,1-.66-.16,5.75,5.75,0,0,1-.59-.31" transform="translate(-96.67 -730.43)"/><path class="cls-2" d="M329.07,986.83h0c.26.28.45.49.56.63l.12.16.41.64a2.15,2.15,0,0,1,.37,1,.61.61,0,0,1-.24.36,1,1,0,0,1-.48.21,1,1,0,0,1-.23,0,1.21,1.21,0,0,1-.3-.11l-.15-.08-.28-.22a1.93,1.93,0,0,1-.39-.57,1.46,1.46,0,0,1-.08-.63,3.44,3.44,0,0,1,.26-1,1.35,1.35,0,0,1,.42-.45" transform="translate(-96.67 -730.43)"/><path class="cls-2" d="M326.6,989.4h0a16.15,16.15,0,0,0,.64,2.45,5.85,5.85,0,0,0,.85,1.8,5.55,5.55,0,0,0,1.32,1.33,5.31,5.31,0,0,0,.75.45,9.63,9.63,0,0,0,.92.4l.18.09a9,9,0,0,1-2.21-2.09,5.69,5.69,0,0,1-.33-.52,4.11,4.11,0,0,1-.21-.42c-.26-.43-.43-.72-.5-.86l-1.18-2.34-.15-.24a.1.1,0,0,0-.08-.06" transform="translate(-96.67 -730.43)"/><path class="cls-1" d="M416.93,980.91h0a19.39,19.39,0,0,0-6.86-1,10.07,10.07,0,0,0-5.12,1.78q-5.12,3.74-6.72,11.61a37.59,37.59,0,0,1,3.74-6.76,17,17,0,0,1,4.21-4,9.19,9.19,0,0,1,4-1.56,16.12,16.12,0,0,1,2.19-.15s1.31,0,4,.16c.45,0,.63,0,.58-.06" transform="translate(-96.67 -730.43)"/><path class="cls-2" d="M425.82,994.25l1.13,1.39q17.88,23.85,41.12,33.48a29.39,29.39,0,0,0,5.76,18.07q11.73,15.51,21.25,21.44l-5.91,11.86q-.65-12.24-6.9-18.76-6.52-5-12,1-3.9,4.5,1.64,24.68,2.15,9.32,7.3,8.73-13,14.78-20.35,20c.16-4.29.62-7.28,1.36-9a15.34,15.34,0,0,1,1.75-3.35q4.61-6,5.05-7.13a9.33,9.33,0,0,0,1.05-4.13,20,20,0,0,0-.31-3.85q-3.1-15.12-3.66-19.36-.37-1.07-2.07-19.51a44.78,44.78,0,0,0-7.89-20.3q-7.11-10.23-10.58-11.88-2.85-1.2-2.61,3.6a41.39,41.39,0,0,0,4,15.76c0,.44-.4.11-1.24-1a28.63,28.63,0,0,1-3.51-7.44q-.61-1.34-4.4-15.41a46.19,46.19,0,0,0-1.81-5,94.18,94.18,0,0,0-8.18-13.85" transform="translate(-96.67 -730.43)"/><path class="cls-2" d="M413.57,1130.34l-.59-.61a39.74,39.74,0,0,1-5-5.91,23.23,23.23,0,0,1-1.33-2.33l-2.83-5.85a12.73,12.73,0,0,0-2.25-2.91q-2.55-2.68-11.47-5l5.45,29.79a29.88,29.88,0,0,1,.72,5.36,22,22,0,0,1-1.33-4.11l-5.8-21.17q-1.11-3.68-1.87-5.5-1.59-5.24-11.16-18.64,6.36-3.14,8.52-5.27c1.57-1.36,3.23-3.77,5-7.23q7.31-2.54,10.34-5.6a10.69,10.69,0,0,0,2.56-5,39.18,39.18,0,0,0,.85-7.24q7.83-7.54,10.52-12.47a40.83,40.83,0,0,0,3.81-12.9c.36-2,.8-5.6,1.34-10.83q.74-7.36,1.18-18.91,0-1.16.39-1.08a43.34,43.34,0,0,1,2.75,11.38,79.49,79.49,0,0,1,.14,8.89q.87,13.41.58,14.27a19.74,19.74,0,0,1-.65,4.48l-2.12,5.94a12.06,12.06,0,0,0-.42,1.7,15.84,15.84,0,0,0-.11,3.93l.74,6.23a13.58,13.58,0,0,1,.1,2.57,6.53,6.53,0,0,1-.42,1.9,17.09,17.09,0,0,0-2.26,5.6c-.12-.46-.33,2.77-.62,9.71a26.65,26.65,0,0,1-.49,3.66,11,11,0,0,1-1.5,3.71c-.44.91-2.1,2.56-5,5a4.5,4.5,0,0,0-1,2.47c-.19.71-.07,3.24.37,7.61q.75,7.48,2.82,24.46" transform="translate(-96.67 -730.43)"/><path class="cls-1" d="M361.45,970.41c.72,1.74,2,5.28,2.12,5.7s.26.89.4,1.4.32,1.07.47,1.68.28,1.24.56,2.7.52,3.06.71,4.77.34,3.56.49,5,.15,1.45.14.48a34.11,34.11,0,0,0,.25-3.76c0-1.83-.08-3.54-.19-5.14a22.34,22.34,0,0,0-.59-3.73c-.16-.66-.34-1.27-.5-1.82s-.34-1.08-.51-1.55a15,15,0,0,0-1.45-2.48c-1.82-3.29-1.09-1.56-1.9-3.26" transform="translate(-96.67 -730.43)"/><path class="cls-1" d="M355.28,968.89c.15.45.39,1.41.66,2.45s.52,2.15.78,3.35a35.83,35.83,0,0,0,.93,3.54,25.42,25.42,0,0,1,.8,3c.19.95.36,1.92.49,2.9a24.77,24.77,0,0,1,.24,2.71c0,.75,0,.75,0,.25,0,0,0-1,0-2s0-2-.09-3-.15-2-.27-2.94a19.21,19.21,0,0,0-.7-3.58c-.39-1.22-.81-2.35-1.23-3.41s-.86-2-1.1-2.45c-.41-.89-.32-.41-.49-.85" transform="translate(-96.67 -730.43)"/><path class="cls-1" d="M393.76,951.35a9.87,9.87,0,0,0-1.91.8,12.26,12.26,0,0,0-2.34,1.69,22.15,22.15,0,0,0-2.5,2.7,25.17,25.17,0,0,0-2.43,4,30,30,0,0,0-1.69,3.85c-.42,1.2-.73,2.32-.92,3.11s-.2.79-.07.26a17.57,17.57,0,0,1,.71-2.15,23.12,23.12,0,0,1,1.8-3.47c.75-1.21,1.63-2.48,2.62-3.85s1.67-2.31,2.34-3.14a17.39,17.39,0,0,1,2-2.13,14.52,14.52,0,0,1,1.69-1.27c.7-.34.32-.28.68-.41" transform="translate(-96.67 -730.43)"/><path class="cls-1" d="M395.68,956.87a10.07,10.07,0,0,0-1.92.56,9.83,9.83,0,0,0-2.17,1.27,13.33,13.33,0,0,0-1.94,1.82,14.51,14.51,0,0,0-1.41,2.06c-.43.69-.85,1.4-1.25,2.12s-.8,1.44-1.05,2a6.17,6.17,0,0,0-.47,1.15c-.09.32-.16.65-.22,1a9.35,9.35,0,0,0-.1,1c0,.27,0,.27,0,.09,0,0,0-.36.05-.7a4.46,4.46,0,0,1,.22-1,5.26,5.26,0,0,1,.41-.9c.16-.27.61-1,1.07-1.65s.93-1.34,1.43-2,1-1.26,1.48-1.88,1-1.32,1.62-1.94a10.87,10.87,0,0,1,1.84-1.6,19.29,19.29,0,0,1,1.69-1c.73-.28.34-.25.72-.35" transform="translate(-96.67 -730.43)"/><path class="cls-1" d="M339.05,961.06a3.6,3.6,0,0,1,.4-.15l.5-.13.64-.12c.31,0,.71-.11,1.08-.15l.92-.12a1.84,1.84,0,0,0,.69-.14,2,2,0,0,1,.69-.12l.68,0h.63l.7.06c.24,0,.5.1.76.16l.77.19.07,0-.56-.15-.79-.18-.72-.15c-.23,0-.43-.08-.64-.11a6.67,6.67,0,0,0-.67-.06c-.23,0-.47,0-.73,0s-.46-.13-.7-.09a7.6,7.6,0,0,0-.86.17l-1.11.3-.77.24c-.17.06-.33.14-.49.21a2.8,2.8,0,0,0-.37.23c-.15.09-.05.1-.12.14" transform="translate(-96.67 -730.43)"/><path class="cls-1" d="M339.75,958.27l.3-.11.7-.29.93-.4.55-.21.39-.13L343,957c.17,0,.42-.11.69-.15a5.81,5.81,0,0,1,.88-.09,4.25,4.25,0,0,0,1-.12,4.57,4.57,0,0,1,1-.12q.5,0,1,0l.8.09a4.08,4.08,0,0,1,.6.11c.25.07.6.17,1,.32s.95.35,1.39.53.44.17.15,0l-1.07-.42c-.49-.2-.88-.38-1.19-.5a6.74,6.74,0,0,0-.65-.25c-.13,0-.42-.12-.72-.18a7.11,7.11,0,0,0-1-.17c-.33,0-.67-.07-1-.09a5.83,5.83,0,0,0-1.09-.06c-.34.06-.66.13-1,.2s-.57.14-.83.22a3.17,3.17,0,0,0-.5.18,4,4,0,0,0-.37.17l-.41.21-.83.51-.77.47-.37.22c-.07,0,0,.09-.05.1" transform="translate(-96.67 -730.43)"/><path class="cls-1" d="M342.78,952.53c.37-.06,1.1-.06,1.81-.08a15.55,15.55,0,0,1,2.06.09c.67.08,1.33.22,2.15.38a19.62,19.62,0,0,1,2.52.68,15,15,0,0,1,2.19.92,8,8,0,0,1,1.55,1l.12.1s-.48-.41-1-.8a16.29,16.29,0,0,0-1.94-1.17c-.73-.38-1.56-.74-2.46-1.13a7.88,7.88,0,0,0-2.32-.6,11.86,11.86,0,0,0-2.15,0,8.73,8.73,0,0,0-1.79.33c-.72.21-.34.19-.7.27" transform="translate(-96.67 -730.43)"/><path class="cls-3" d="M449.12,964.44h0c-.06,0,0,.1.18.25l2.11,1.71c-.31-.06-.35,0-.13.32,1,1.14,2,2.19,2.94,3.16a30.42,30.42,0,0,0-3.25-2.59c-.13-.08-.17-.07-.12,0l2.58,2.64a49.53,49.53,0,0,0-5.09-3.46c-1.48-.86-2.4-1.22-2.75-1.09-.13.1,0,.39.5.88,1.18,1.12,2.5,2.36,4,3.69-.58-.4-.73-.44-.44-.11s.53.53.69.67l1.24,1.12q-2.85-2.07-2.94-1.38a1.48,1.48,0,0,0,.34.71l2.28,3-4.12-2.84c-.13,0-.1.11.08.36a32,32,0,0,1,2.48,2.82c-1.82-1.31-2.89-2-3.23-2.22a2.75,2.75,0,0,0-1.27-.54c-.1.11-.06.29.12.51l2.51,2.63c-1.36-.9-2.25-1.48-2.69-1.72s-.89-.43-1-.32,0,.19.24.53l2.27,2.34c-1.64-1.22-2.58-1.9-2.84-2.07q-.78-.52-.72-.24l2.68,2.81q-3.44-2.93-4.34-3.49c-.68-.36-.83-.33-.46.11.79.81,1.78,1.72,3,2.74-1-.76-2.06-1.55-3.22-2.36a3.1,3.1,0,0,0-1.09-.58q-.09.11.33.51l2.49,2.34-3.1-2.22c-.36-.24-.53-.29-.5-.17a9.48,9.48,0,0,0,.86.91c.25.26,1.17,1.11,2.74,2.56-1.38-1.13-2.9-2.31-4.57-3.52a4,4,0,0,0-1.58-.86l0,.08.1.19a12,12,0,0,0,1.23,1.16c.87.72,2.16,1.72,3.86,3-3.2-2.3-5-3.57-5.46-3.83s-.44-.16-.35-.06l3.11,3.19a32.5,32.5,0,0,0-5.52-3.75,52,52,0,0,0,4.52,4.33l.78.35a8.72,8.72,0,0,0,1,.6,9.16,9.16,0,0,0,1.37.56,24.29,24.29,0,0,1,3.38.77c1.49.14,2.37.21,2.64.19a11.69,11.69,0,0,0,6.68-2.71l.69-.62a21.74,21.74,0,0,0,1.43-2.13,5.11,5.11,0,0,0,.78-2c0-.71-.77-1.88-2.45-3.52a19.23,19.23,0,0,0-4.86-3.27" transform="translate(-96.67 -730.43)"/><path class="cls-3" d="M454.51,968.67q-.92-2.29-5.16-5.17a36.41,36.41,0,0,1,8.83,5.54c.2.07-.1-.22-.91-.85a19.85,19.85,0,0,0-1.85-1.37,48.91,48.91,0,0,0-5.78-3.38q1.35.22,8.53,4.14c.4.2.56.21.49,0a26.5,26.5,0,0,0-4.13-2.86q-.57-.33-1.65-.84c-.35-.18-1.42-.62-3.22-1.31-.11,0-.15-.09-.11-.13a19.6,19.6,0,0,1,3.93,1.3c1,.38,3,1.33,6,2.86.38.18.57.2.56,0a16.5,16.5,0,0,0-4-3.2,46.18,46.18,0,0,0-5.2-2.55,6,6,0,0,1,1.66.5q1.89.76,7.42,3.41c.8.34,1.37.58,1.73.71.18.07.27.07.29,0-1.76-1.44-5.62-3.49-11.55-6.14a12.85,12.85,0,0,1,2.89.77l8.71,3.35c.22-.14-.83-.76-3.13-1.87q-.69-.43-7.3-3.27c.08-.13,1.1.15,3.05.86q8.67,3.57,8.67,3.32l-2.23-1.15-7.46-3.08c-.89-.37-1.3-.59-1.26-.67a7.14,7.14,0,0,1,2.12.51l9.9,3.65q.08-.08-.12-.21c-.39-.26-.87-.55-1.43-.85l-8.75-4.54a7.33,7.33,0,0,1,2.57.64l8.82,3.25c.28,0-.12-.34-1.2-1L456,954.9c.15-.2,1.29,0,3.43.72.27,0,2.5.89,6.71,2.65.35.16.44.14.27,0a32.42,32.42,0,0,0-4-2.31,54.17,54.17,0,0,0-6.08-2.7q-.56-.26-.51-.36,3.12-.17,11.15,5.13-2.69-3.5-9.2-6.78a16.41,16.41,0,0,1,4.35.56,11.39,11.39,0,0,1,3,1.38q4,2.61,2.12,8.32c-1.48,3.31-2.92,5.56-4.34,6.77a14.92,14.92,0,0,1-3.45,2.25,2.89,2.89,0,0,1-1.95.09Z" transform="translate(-96.67 -730.43)"/><path class="cls-3" d="M293.41,953.19h-.11a16.79,16.79,0,0,0-4.76.73,17.2,17.2,0,0,0-2,.75,18.86,18.86,0,0,0-2.83,1.61L282.66,958a8.83,8.83,0,0,0-1,1.38,5.19,5.19,0,0,0-.7,1.93,3.53,3.53,0,0,0,.56,2.35,32.93,32.93,0,0,0,2.66,3.57A22.56,22.56,0,0,0,287,970a10.72,10.72,0,0,0,3.42,2.05,1.15,1.15,0,0,0,.45-.1q5.48-3.12,7.42-4,2.73-1.34,5.1-2.25l0-.07c.07-.2-.23-.28-.92-.22a46.49,46.49,0,0,0-5.71,1.23,47.4,47.4,0,0,0-8.29,3,12.36,12.36,0,0,1,3.54-1.82c2.22-.77,3.68-1.22,4.39-1.37l3.77-.92q-1.09-.54-7.09.57a16.36,16.36,0,0,0-5.39,2.31,17.42,17.42,0,0,1,4.65-2.26,58.89,58.89,0,0,1,6.78-1.5c.57-.15.91-.31,1-.48.12-.67-1.66-.8-5.36-.4a21.22,21.22,0,0,0-6.42,1.75,13.3,13.3,0,0,1,1.72-1,20,20,0,0,1,4-1.4,48.54,48.54,0,0,1,6.08-.66c.23,0,.33-.1.31-.19a18.74,18.74,0,0,0-6.25-.19,33.09,33.09,0,0,0-8.77,2.08l.67-.39a21.29,21.29,0,0,1,6.42-2.42,25.87,25.87,0,0,1,7.86-.22c-1.41-.55-4.17-.68-8.27-.41a26.54,26.54,0,0,0-7.74,2.13,27.71,27.71,0,0,1,2.45-1.31l1.24-.53a19.66,19.66,0,0,1,2.5-.81,20.13,20.13,0,0,1,7.87-.47,4,4,0,0,0-.74-.21c-1.45-.32-3.91-.21-7.4.32a23.24,23.24,0,0,0-7.18,2.55,20.73,20.73,0,0,1,4.06-2.45,20.07,20.07,0,0,1,3.66-1.24l-1,.17c-1.52.41-2.83.79-3.91,1.14a19.65,19.65,0,0,0-3,1.23,31.09,31.09,0,0,1,5.48-2.91,14.53,14.53,0,0,1,3.56-1.06q.93-.21,6-.77c0-.07-.24-.13-.81-.17-1.2-.07-2.38-.09-3.53-.09a31.14,31.14,0,0,0-3.88.63,27.33,27.33,0,0,0-7,2.82,9.87,9.87,0,0,1,1.85-1.52l1.1-.62a15.92,15.92,0,0,1,2.58-1,26.46,26.46,0,0,1,6.6-.85,12.33,12.33,0,0,0-4.88-.45,17.71,17.71,0,0,0-3.32.87c-.47.18-.91.38-1.33.59a11.9,11.9,0,0,0-1.2.72l-.55.41a27.94,27.94,0,0,1,2.53-1.82,21.5,21.5,0,0,1,2.51-1.37l1.24-.51a13.94,13.94,0,0,1,5.15-.91Zm1,5H294l-.38,0-.38,0-.39,0-.39.05c-.52.09-1.06.2-1.6.35l.89-.13.43,0,.84-.08.79,0H295l.43,0,.42,0,.4,0,.39.06a7.74,7.74,0,0,1,1.38.34,9.46,9.46,0,0,0-1.57-.47l-.4-.08-.42,0-.41,0-.43,0Z" transform="translate(-96.67 -730.43)"/><path class="cls-3" d="M293.24,971.94a61.94,61.94,0,0,0,10-5.86q-5.55,4.88-7.75,5.73a4.44,4.44,0,0,0,1-.43l4.87-2.41a11.12,11.12,0,0,0,2.36-1.82,23.22,23.22,0,0,1-7.66,5.93c-.15.19.31.07,1.39-.37A30.75,30.75,0,0,0,304.6,968a20.07,20.07,0,0,1-3.2,3.06,28.32,28.32,0,0,1-4.77,3c-.13.08-.16.14-.11.19q.38.35,5.53-2.5a19.09,19.09,0,0,0,3.81-3.29q-1.74,2.85-7.45,6.78-.37.62,1-.12a22,22,0,0,0,3.16-2.18,16.07,16.07,0,0,0,3.77-4.15,32.56,32.56,0,0,1-3.27,3.65,40.36,40.36,0,0,1-4,3.4c-.05.05,0,.05.1,0a30.27,30.27,0,0,0,7.81-6q-.87,1.54-8.38,7.11a45.71,45.71,0,0,0,8.78-6.49,28.65,28.65,0,0,1-7,6.44,35.38,35.38,0,0,0,8.34-6.19,13.52,13.52,0,0,1-2.65,3.77,32.52,32.52,0,0,1-4.52,3.67,5.94,5.94,0,0,0,1.36-.79l6.4-4.32c.11-.07.14-.07.11,0q-.9,1.11-8,6.19,1.05,0,9.48-5.26a29.18,29.18,0,0,1-5.4,4.88,6.81,6.81,0,0,1-3.66,1.62,4.74,4.74,0,0,1-2-.58c-2.73-1.42-4.21-2.3-4.45-2.66a5.24,5.24,0,0,1-1.66-4.11Z" transform="translate(-96.67 -730.43)"/><path class="cls-2" d="M623,1049a46.46,46.46,0,0,1-4.14,12.26,5.72,5.72,0,0,0-.5,1.46,14.61,14.61,0,0,0,.45,2.9,4.47,4.47,0,0,1,0,1.63c-.29,2.1-2.24,4.06-5.86,5.91s-6.92,2.59-9.92,2.16a6.55,6.55,0,0,1-4.19-2.18,4.91,4.91,0,0,1-1.27-4,5.65,5.65,0,0,1,1.18-2.94,57.37,57.37,0,0,1,5.16-4.51c4-3.24,6.26-6.67,6.76-10.27a6.48,6.48,0,0,0-.67-4.35,4.06,4.06,0,0,0-3.09-2q-4.07-.57-7.12,6.3a103,103,0,0,1-5.89,11.77q-7.44,11.09-18.69,9.51a19.84,19.84,0,0,1-15.1-10.4q-5.26-9.2-3.4-22.6a61.11,61.11,0,0,1,3.18-12.39c1.58-4.28,3.14-7.33,4.69-9.11,1.2-1.34,3.55-2.39,7.07-3.11a29,29,0,0,1,10-.43,5.48,5.48,0,0,1,3.32,1.42,3.62,3.62,0,0,1,1.09,3.14,4.63,4.63,0,0,1-2.3,3.15,66.92,66.92,0,0,1-7.24,3.7,12.82,12.82,0,0,0-5.1,4.87,18.81,18.81,0,0,0-2.81,7.53,10.94,10.94,0,0,0,.49,5.79,3.84,3.84,0,0,0,3,2.61,4.1,4.1,0,0,0,3.45-1.24,17.16,17.16,0,0,0,3.28-5.11,72.29,72.29,0,0,1,5.28-9.62,29.81,29.81,0,0,1,5.33-5.91q7.56-6.47,15.86-5.3a18.24,18.24,0,0,1,7.74,3,19.81,19.81,0,0,1,6,6.36q5.48,8.76,3.9,20m-9-107,5,23.68c1,4.8,1.85,8.27,2.53,10.43a34.24,34.24,0,0,0,2.59,6.17,6.78,6.78,0,0,1,.59,1.46c.34,1.6-.21,3.2-1.68,4.8a17.18,17.18,0,0,1-9.49,5.18,8.23,8.23,0,0,1-5-.25,4.18,4.18,0,0,1-2.45-3.12,4.11,4.11,0,0,1,.1-2.5,11.93,11.93,0,0,1,2.31-2.87,10.06,10.06,0,0,0,3-6q.38-3.33-1.13-10.43c-.75-3.54-1.85-5.54-3.27-6a6.17,6.17,0,0,0-2.88-.15c-1.14.18-4,.75-8.72,1.74-1.84.39-2.92.95-3.23,1.65s-.21,2.37.35,5a4.15,4.15,0,0,0,1.4,2.64,4.64,4.64,0,0,0,3.11.5,20.29,20.29,0,0,1,3.81-.11,3.73,3.73,0,0,1,2,.89,3.42,3.42,0,0,1,1.32,2.09,4,4,0,0,1-1.11,3.61,12.91,12.91,0,0,1-4.38,2.64,39.1,39.1,0,0,1-6.92,2.18c-4.87,1-9,1.12-12.43.27a4.12,4.12,0,0,1-3.33-3.24,2.58,2.58,0,0,1,.34-2.34,8.21,8.21,0,0,1,3.14-1.64q5.07-1.79,3.92-7.18a3,3,0,0,0-1.91-2.55q-1.49-.5-5,.26c-1.45.3-3.3.82-5.55,1.49a28.68,28.68,0,0,0-4.4,1.59,2.92,2.92,0,0,0-1.43,2.68,27.14,27.14,0,0,0,.82,6.51c1,4.61,2.32,7.94,4,10a13.51,13.51,0,0,0,7.65,4.34,12.33,12.33,0,0,1,4.09,1.57,4.16,4.16,0,0,1,.49,6,6.9,6.9,0,0,1-4,2.16,22.76,22.76,0,0,1-7.22.05,35,35,0,0,1-8.12-1.94,10.38,10.38,0,0,1-2.47-1.3,3.05,3.05,0,0,1-.9-1.65,19.06,19.06,0,0,1-.26-2.59,54.71,54.71,0,0,0-1-8l-8.3-39.08a5.9,5.9,0,0,1,.26-3.87,3.68,3.68,0,0,1,2.66-1.91,2.75,2.75,0,0,1,2,.16,9.31,9.31,0,0,1,2.07,2.2,5,5,0,0,0,1.89,1.74,6.93,6.93,0,0,0,2.8.49A94.47,94.47,0,0,0,581,947q17.79-3.78,22-7a3.42,3.42,0,0,0,1.08-1.29,10.11,10.11,0,0,0,.37-2.49,3.45,3.45,0,0,1,3-3.37,4.36,4.36,0,0,1,4.83,2.29A39.69,39.69,0,0,1,614.08,942ZM565.49,876.3l-9.27,5.92-.34.24a3.59,3.59,0,0,0-1.56,1.72,2.62,2.62,0,0,0,.69,2c1.6,2.26,3.33,3.49,5.22,3.69s4.13-.59,6.71-2.41q7.42-5.25,3.69-10.52a3.29,3.29,0,0,0-2.19-1.62A4.9,4.9,0,0,0,565.49,876.3Zm-18,16.1c-.69-1-1.43-1.38-2.22-1.24a15.85,15.85,0,0,0-4.4,2.5,45.23,45.23,0,0,0-7.18,6,3.41,3.41,0,0,0-.79,1.42,7.56,7.56,0,0,0,0,2.2c.23,2.15-.35,3.7-1.73,4.67-1.7,1.19-3.64,1-5.86-.67s-5.14-5-8.75-10.12q-10.06-14.25-4.66-18.06a3,3,0,0,1,1.77-.61,10.83,10.83,0,0,1,2.93.83,6.89,6.89,0,0,0,4.25.41,23.4,23.4,0,0,0,5.84-2.88q2.87-1.73,19.72-13.63a39.41,39.41,0,0,0,6.9-5.68,5.3,5.3,0,0,0,1.17-4.29,8.73,8.73,0,0,1-.12-3.32,3.22,3.22,0,0,1,1.35-1.82,4,4,0,0,1,3.25-.64,8,8,0,0,1,3.73,2,22.69,22.69,0,0,1,3.62,4.23c.6.85,2,3.05,4.11,6.62.39.67,1.08,1.72,2.06,3.1,1.64,2.31,4,5.27,7,8.91q2.87,3.47,3.9,4.93,5.8,8.24,5.65,16.42a14.27,14.27,0,0,1-6.51,11.86,15.4,15.4,0,0,1-7.63,2.86,13.23,13.23,0,0,1-7.66-1.57c-1-.54-1.77-.6-2.33-.2-.75.53-.91,1.58-.48,3.17a13.81,13.81,0,0,1-.24,9c-1.09,2.64-3.48,5.69-7.18,9.1a8.6,8.6,0,0,0-2.59,3.33,8.45,8.45,0,0,0,.7,4.06,2.68,2.68,0,0,1-.1,1.92,3.55,3.55,0,0,1-1.33,1.68,4.86,4.86,0,0,1-3,.78,7.94,7.94,0,0,1-3.59-1c-2.53-1.45-5.1-4-7.76-7.8-3.52-5-4.75-9.51-3.61-13.54a19.28,19.28,0,0,1,2.7-5.62,94.26,94.26,0,0,1,6.7-8.34c2-2.31,3.2-4.27,3.57-5.89A6.64,6.64,0,0,0,547.45,892.4Zm-33.67-71.79c-1.79-1.23-3.21-1.51-4.24-.89A19,19,0,0,0,506,823.1a44.75,44.75,0,0,0-4.07,5.08,2.56,2.56,0,0,0-.43,2.63,9.34,9.34,0,0,0,3.14,2.94,5,5,0,0,0,2.95,1.1,4.17,4.17,0,0,0,2.56-1.34q3.78-3.63,6.56-1.75,4.76,3.24-3,14.61-4.92,7.2-9.27,9.18a4.67,4.67,0,0,1-4.85-.27c-1.52-1-1.72-2.67-.54-4.88a16.11,16.11,0,0,0,1.42-3.14,4.54,4.54,0,0,0,0-2.31,6.45,6.45,0,0,0-2.93-3.76,4.11,4.11,0,0,0-2.79-1c-.69.13-1.42.81-2.16,2L490,845.8q-4.59,6.74-4.21,9.17a3,3,0,0,0,.44,1.41,23.51,23.51,0,0,0,2.22,2.22,3.16,3.16,0,0,1,1,2.22,4,4,0,0,1-.7,2.55c-1.36,2-3.41,2.49-6.13,1.47-3.93-1.51-8.94-4.32-15-8.47q-8-5.48-10.41-8.48a5.11,5.11,0,0,1-1.16-3.07,4.85,4.85,0,0,1,.83-3.08,4.11,4.11,0,0,1,3.13-1.91,17.66,17.66,0,0,1,2.81.48c1.84.41,3.62-.31,5.31-2.2q4-4.32,15.58-21.36c3.35-4.9,5.34-8.19,6-9.89a5,5,0,0,0-.39-4.7,10.69,10.69,0,0,1-1.53-3.24,3.2,3.2,0,0,1,.66-2.25,4.09,4.09,0,0,1,3.64-1.73,8.73,8.73,0,0,1,4.91,1.67c1,.71,2.49,1.81,4.38,3.33q6,4.84,14.85,10.86,14.13,9.63,19.57,12.19a12.14,12.14,0,0,1,1.07.61,4.16,4.16,0,0,1,1.54,3.33,18.47,18.47,0,0,1-3.15,12,7.3,7.3,0,0,1-3.76,3.09,4.39,4.39,0,0,1-3.94-.59,3.92,3.92,0,0,1-1.69-1.95,56.28,56.28,0,0,1-1-6.26,9.72,9.72,0,0,0-2.41-5.51A60.72,60.72,0,0,0,513.78,820.61Zm-119.45-7.83L387.76,825a22.46,22.46,0,0,1-2.67,4.13,2.58,2.58,0,0,1-2,1,2.4,2.4,0,0,1-1.78-1,31.56,31.56,0,0,1-2.06-4.29c-1.06-2.48-1.93-4.68-2.61-6.58l-5.17-14.41q-1.07-3-2.46-3.12c-1-.07-1.62.72-1.84,2.38-.49,3.67-.85,7.08-1.08,10.21a30.89,30.89,0,0,0,0,6.66,3.38,3.38,0,0,0,.76,1.57,19.87,19.87,0,0,0,2.81,1.92,2.83,2.83,0,0,1,1.35,2.87c-.26,3.51-4.88,5-13.88,4.28-7.58-.56-11.24-2.56-11-6a2.56,2.56,0,0,1,.73-1.85,13.37,13.37,0,0,1,3.16-1.54,3.93,3.93,0,0,0,2.23-1.77,17.89,17.89,0,0,0,1.26-4.68c.48-2.5,1-6.58,1.72-12.27s1.15-10.59,1.45-14.67c.37-5.1.25-8.59-.41-10.46a3.7,3.7,0,0,0-.85-1.48,10.7,10.7,0,0,0-1.95-1.37q-3.23-1.86-3-4.39a4.43,4.43,0,0,1,1.45-2.92,7,7,0,0,1,3.46-1.68,38.39,38.39,0,0,1,5.6-.65,48.31,48.31,0,0,1,5.89,0q6,.45,8.42,1.62a4.82,4.82,0,0,1,1.84,1.41,18.45,18.45,0,0,1,1.78,3.44L387.27,790a23.93,23.93,0,0,0,1.93,3.79,2.26,2.26,0,0,0,1.65.78,2.38,2.38,0,0,0,1.73-.58,10.89,10.89,0,0,0,1.9-2.5l7.58-12.44c.94-1.59,1.55-2.65,1.83-3.13q2.66-4.51,5-5.91,3-1.82,10.57-1.25,13.31,1,12.86,7a4.27,4.27,0,0,1-.68,2.15,9,9,0,0,1-2.26,1.84,7.37,7.37,0,0,0-3.08,4.55,98.43,98.43,0,0,0-2.24,15.7,169.56,169.56,0,0,0-.42,21.09,7,7,0,0,0,.64,3.07,13.76,13.76,0,0,0,2.85,2.62,3.45,3.45,0,0,1,1.48,3.13c-.16,2.2-1.73,3.65-4.72,4.33a20.53,20.53,0,0,1-4.82.64c-1.66,0-4.22-.08-7.67-.32-5.29-.41-9.21-1.07-11.75-2-2.83-1.07-4.17-2.6-4-4.63a3,3,0,0,1,.7-1.83,22.87,22.87,0,0,1,3.11-2.44c.87-.6,1.51-1.83,1.95-3.68a71.1,71.1,0,0,0,1.15-9.56,21.46,21.46,0,0,0,0-5,1.45,1.45,0,0,0-1.4-1.28c-.87-.06-1.76.47-2.67,1.61A58.57,58.57,0,0,0,394.33,812.78Zm-111.6-12.89,3.59,10.4a4.06,4.06,0,0,1,.16.39,3.66,3.66,0,0,0,1.3,1.92,2.68,2.68,0,0,0,2.06-.22c2.57-1,4.18-2.42,4.81-4.21s.39-4.16-.78-7.09q-3.36-8.45-9.37-6.05a3.38,3.38,0,0,0-2.09,1.75A5,5,0,0,0,282.73,799.89Zm11.44,21.31c-1.11.44-1.67,1.06-1.72,1.86a15.54,15.54,0,0,0,1.4,4.87,44.92,44.92,0,0,0,4.16,8.38,3.26,3.26,0,0,0,1.2,1.09,6.92,6.92,0,0,0,2.14.52q3.19.42,4.13,2.77c.77,1.93.1,3.76-2,5.54s-6.08,3.83-11.89,6.14q-16.2,6.46-18.64.32a3,3,0,0,1-.19-1.87,10.74,10.74,0,0,1,1.49-2.65,7,7,0,0,0,1.4-4,24,24,0,0,0-1.44-6.35q-1-3.18-8.65-22.36a39.24,39.24,0,0,0-3.91-8,5.28,5.28,0,0,0-3.9-2.13,8.73,8.73,0,0,1-3.26-.66,3.19,3.19,0,0,1-1.45-1.74,4,4,0,0,1,.13-3.31,8,8,0,0,1,2.78-3.16,22.39,22.39,0,0,1,5-2.54c1-.38,3.43-1.21,7.4-2.45.74-.22,1.92-.66,3.49-1.28q3.94-1.58,10.29-4.71c2.7-1.32,4.6-2.19,5.71-2.63q9.36-3.74,17.29-1.67a14.29,14.29,0,0,1,10,9.1,15.41,15.41,0,0,1,1,8.09,13.3,13.3,0,0,1-3.3,7.08c-.77.84-1,1.58-.75,2.22q.51,1.27,3,1.2a13.93,13.93,0,0,1,8.75,2.35c2.31,1.68,4.72,4.72,7.17,9.11,1,1.83,1.91,2.92,2.63,3.29a8.42,8.42,0,0,0,4.11.28,2.63,2.63,0,0,1,1.84.54,3.52,3.52,0,0,1,1.33,1.69,4.87,4.87,0,0,1,.05,3.15,8,8,0,0,1-1.86,3.25q-3,3.16-9.39,5.71c-5.67,2.26-10.35,2.4-14,.35a19,19,0,0,1-4.83-3.94,92.91,92.91,0,0,1-6.55-8.45,14.91,14.91,0,0,0-4.89-4.86A6.65,6.65,0,0,0,294.17,821.2Zm-75.33,54.5,6.48-6.61c1.18-1.21,1.5-2.08,1-2.62-.73-.72-3.37-1.66-7.92-2.8a25.11,25.11,0,0,0-4.38-.87,2.42,2.42,0,0,0-1.92.63c-.79.81-.71,2.22.28,4.22.12.3.58,1.4,1.43,3.32,1.37,3.18,2.27,5,2.72,5.43S217.83,876.73,218.84,875.7Zm18.72-27.58,19.86,7a13.65,13.65,0,0,0,4,.91,4.59,4.59,0,0,0,2.6-1.07c1.84-1.38,3.44-1.38,4.83,0q2.46,2.42.63,6.43T261,872.11a102.75,102.75,0,0,1-11.68,10.63,7.13,7.13,0,0,1-3.85,1.47,4.12,4.12,0,0,1-3.21-1.2,3.14,3.14,0,0,1-1.06-2,7,7,0,0,1,.87-3q1-2.1-.27-3.36-2.26-2.21-5.32.13a86.81,86.81,0,0,0-8.48,7.85c-2.93,3-4.51,4.93-4.71,5.88a3.84,3.84,0,0,0,.28,2.12,5.82,5.82,0,0,0,1.3,2.06c.48.47.89.7,1.23.65a12.45,12.45,0,0,0,2.56-1.17c1.74-1,3.21-.86,4.43.33,2.66,2.62.88,7.13-5.39,13.53a44.68,44.68,0,0,1-8.59,7.27,4.17,4.17,0,0,1-5.4-.67,3.26,3.26,0,0,1-1.11-2.1,6.62,6.62,0,0,1,.78-2.9,10,10,0,0,0,1.08-5.45,45,45,0,0,0-2.83-9.06l-5.73-14.94a117,117,0,0,0-5.13-11.91,27.08,27.08,0,0,0-4.67-6.38,24.89,24.89,0,0,1-3.67-4.3,7.26,7.26,0,0,1-.81-3.58,11.22,11.22,0,0,1,3.45-8.24,13.83,13.83,0,0,1,9-3.89Q212,839.15,237.56,848.12Zm-78.05,67.93c-.8,2-.77,3.47.06,4.33a18.94,18.94,0,0,0,4.08,2.77A43.88,43.88,0,0,0,169.5,926a2.56,2.56,0,0,0,2.66-.15,9.46,9.46,0,0,0,2.18-3.7,5.06,5.06,0,0,0,.43-3.12,4.12,4.12,0,0,0-1.86-2.2c-2.91-2-4-4-3.14-6q2.13-5.34,14.92-.25c5.39,2.15,9.06,4.51,11,7.05a4.66,4.66,0,0,1,.79,4.79c-.68,1.72-2.23,2.26-4.65,1.59a15.71,15.71,0,0,0-3.37-.7,4.57,4.57,0,0,0-2.24.54,6.43,6.43,0,0,0-3,3.68,4.1,4.1,0,0,0-.35,2.93,3.81,3.81,0,0,0,2.43,1.68l4,1.66c5,2,8.34,2.71,9.88,2.12a2.85,2.85,0,0,0,1.27-.74,23.61,23.61,0,0,0,1.69-2.65,3.2,3.2,0,0,1,1.94-1.46,4,4,0,0,1,2.65.14q3.36,1.34,2.76,5.66-.92,6.24-5,16.52c-2.39,6-4.4,10-6,12a5.26,5.26,0,0,1-2.75,1.8,4.93,4.93,0,0,1-3.18-.14,4.17,4.17,0,0,1-2.55-2.65,17.44,17.44,0,0,1-.15-2.84c0-1.88-1.08-3.46-3.3-4.71q-5.07-2.93-24.23-10.57c-5.52-2.19-9.16-3.42-11-3.7a5,5,0,0,0-4.5,1.41,10.77,10.77,0,0,1-2.83,2.2,3.2,3.2,0,0,1-2.35-.15,4.17,4.17,0,0,1-2.48-3.17,8.79,8.79,0,0,1,.57-5.17c.47-1.16,1.23-2.83,2.3-5q3.4-6.93,7.37-16.86c4.22-10.59,6.75-17.84,7.64-21.76.14-.52.26-.9.36-1.17a4.15,4.15,0,0,1,2.92-2.24,18.54,18.54,0,0,1,12.4.47,7.31,7.31,0,0,1,3.82,3,4.33,4.33,0,0,1,.29,4,4,4,0,0,1-1.53,2.08,55.29,55.29,0,0,1-5.9,2.32,9.78,9.78,0,0,0-4.86,3.56A62.08,62.08,0,0,0,159.51,916.05Zm-18.48,108,5.43,4.43c2,1.62,3.66,2.34,5.08,2.17a5,5,0,0,0,2.28-.91,19.47,19.47,0,0,0,2.89-2.74l18.15-19.94a33,33,0,0,0,3-3.65,12.32,12.32,0,0,0,1.2-2.85,9.18,9.18,0,0,1,2-3.86,5.24,5.24,0,0,1,3.28-1.46c3.3-.4,5.25,1.75,5.81,6.45l2.14,17.75a4.68,4.68,0,0,1-.45,3,20.84,20.84,0,0,1-3.53,3.81,143.16,143.16,0,0,0-10.35,11,50.1,50.1,0,0,0-3.22,4.11,3.2,3.2,0,0,0-.63,2c.22,1.82,2,2.51,5.44,2.1q4.14-.51,5.53-2.47.19-.36.84-1.62a4.83,4.83,0,0,1,3.77-3c2.06-.26,3.69.94,4.92,3.58s2.23,7.2,3,13.68q1,8.65.48,12.76a5.39,5.39,0,0,1-1.37,3,4.28,4.28,0,0,1-2.66,1.37q-2.49.3-4.6-2.28a5.19,5.19,0,0,0-2.05-1.58,12.52,12.52,0,0,0-3.53-.6,102.93,102.93,0,0,0-16.37,1q-13.11,1.59-18.47,3.24a8.48,8.48,0,0,0-3.11,1.41,6.73,6.73,0,0,0-1.63,2.52,4.65,4.65,0,0,1-3.84,3.13,4.47,4.47,0,0,1-3.81-1.22,11.75,11.75,0,0,1-2.69-5,65.32,65.32,0,0,1-2.39-11.85c-.59-4.89-.54-8.59.1-11.06a4.74,4.74,0,0,1,4.29-3.76,4.23,4.23,0,0,1,2.25.23,13.24,13.24,0,0,1,2.7,2.26,6.76,6.76,0,0,0,3.31,1,19.42,19.42,0,0,0,4.93,0q3.93-.46,3.72-2.26a3.11,3.11,0,0,0-1.18-2,59.21,59.21,0,0,0-5.17-3.48q-4.78-3-6.36-2.79a5.89,5.89,0,0,0-2.42,1.2,4.84,4.84,0,0,1-2.08.86q-3.46.42-5.34-3.16c-1.25-2.38-2.25-6.58-3-12.59a44.94,44.94,0,0,1-.35-10.78q.66-4.39,4.44-4.86a4.84,4.84,0,0,1,2.91.56,4.06,4.06,0,0,1,1.92,2,20,20,0,0,1,.91,4.49,10.16,10.16,0,0,0,1,3.65A12.61,12.61,0,0,0,141,1024.06Zm34.21,113.16a7.15,7.15,0,0,0,6.22,3.6,11,11,0,0,0,6.31-1.66,42.15,42.15,0,0,0,9.49-8.15,55.21,55.21,0,0,0,7.9-11,11.52,11.52,0,0,0,1.32-5,8,8,0,0,0-1-4.45,7.07,7.07,0,0,0-5.25-3.59,10.9,10.9,0,0,0-7.21,1.72,46.15,46.15,0,0,0-9.63,7.84,43.37,43.37,0,0,0-7.27,9.84,15.5,15.5,0,0,0-1.77,5.87A8.94,8.94,0,0,0,175.24,1137.22Zm-13.92,3a33.78,33.78,0,0,1-4.83-21.74,35.67,35.67,0,0,1,5.55-14.84,34,34,0,0,1,11.09-10.88A30,30,0,0,1,194,1089a34.46,34.46,0,0,1,17.48,8.52,40.43,40.43,0,0,1,8,9.66,37.13,37.13,0,0,1,5,15.15,31.58,31.58,0,0,1-3.47,18.43A33,33,0,0,1,208.35,1154a32.21,32.21,0,0,1-20.26,4.62,32.76,32.76,0,0,1-17.41-7.37A39.72,39.72,0,0,1,161.32,1140.26Z" transform="translate(-96.67 -730.43)"/><path class="cls-2" d="M600.17,1124.61q-7.35,12.73-12.62,9.69a4.4,4.4,0,0,1-1.94-2,9.94,9.94,0,0,1-.57-3.66,5,5,0,0,0-1.41-3.5,35.69,35.69,0,0,0-6.19-4.13c-1.91-1.1-3.28-1.43-4.13-1a4.41,4.41,0,0,0-1.57,1.56c-.52.82-1.67,2.75-3.45,5.83-1.61,2.8-2.48,4.62-2.57,5.48s.46,1.62,1.66,2.31a44.76,44.76,0,0,0,7.78,3.84,4.74,4.74,0,0,0,4-.25,10,10,0,0,1,3.11-1.36,3.39,3.39,0,0,1,2.23.53,5,5,0,0,1,2.3,3,7.26,7.26,0,0,1-.06,4.37,53.55,53.55,0,0,1-5.11,11.26q-4.33,7.5-7.77,10.27c-2.28,1.86-4.4,2.24-6.33,1.12a4.51,4.51,0,0,1-2.2-4.65,6.85,6.85,0,0,0-.2-2.9,7.36,7.36,0,0,0-2.08-2.22q-.91-.75-8.82-5.63T541.61,1145c-5.53-3.19-9.15-5-10.88-5.47a4.37,4.37,0,0,0-2.06-.2,17.41,17.41,0,0,0-3.11,1.62,3.27,3.27,0,0,1-3.52,0q-3.09-1.79-2.37-6.31t5.5-12.78c2.79-4.84,5.35-8.14,7.63-9.9,2.07-1.6,4-1.88,5.85-.82a4.64,4.64,0,0,1,2.25,4.51,4.92,4.92,0,0,0,.38,2.36,8.8,8.8,0,0,0,1.91,2.22,47.42,47.42,0,0,0,8,5.6c1.72,1,2.92,1.35,3.62,1.08s1.66-1.47,2.89-3.59q4.22-7.3,4.56-9.77c.09-.67-.35-1.39-1.34-2.12a45.55,45.55,0,0,0-4.67-3c-3.09-1.78-5.57-2.64-7.44-2.55a8.65,8.65,0,0,0-2.9,1.16,4,4,0,0,1-4.22-.16c-1.89-1.09-2.59-3.26-2.07-6.47s2.18-7.29,5-12.17a41.69,41.69,0,0,1,7.71-10.14,7.71,7.71,0,0,1,3.4-1.87,4,4,0,0,1,3.06.38,3.44,3.44,0,0,1,1.7,1.85,13,13,0,0,1,.24,3.94,3.94,3.94,0,0,0,.53,2.46,11.27,11.27,0,0,0,2.61,2.46,118.22,118.22,0,0,0,12.14,7.82c.94.55,2.08,1.19,3.41,1.91q9.89,5.49,11.28,6.29c2.32,1.38,4,2.07,5,2.09s2.46-.63,4.39-1.91a3.17,3.17,0,0,1,3.61-.31q4.11,2.38,1.1,11.29a56,56,0,0,1-4.57,10.1" transform="translate(-96.67 -730.43)"/><path class="cls-2" d="M435.27,872.72a154.55,154.55,0,0,0-117.49-.08l-.19.08a153.78,153.78,0,1,0,201.12,83.56l-.08-.18a154,154,0,0,0-33.22-49.76l-.2-.19a154.14,154.14,0,0,0-49.94-33.43m-58.85-19.35A161.19,161.19,0,0,1,490.65,900.7l.21.22a161.62,161.62,0,0,1,34.87,52.22l.08.21a161.48,161.48,0,1,1-211.17-87.73l.21-.08A161,161,0,0,1,376.42,853.37Z" transform="translate(-96.67 -730.43)"/><text class="cls-4" transform="translate(824.55 227.4)">OK<tspan class="cls-5" x="340.52" y="0"> </tspan><tspan class="cls-6" x="398.5" y="0">FARM</tspan><tspan class="cls-6"><tspan x="0" y="267.6">FRESH</tspan></tspan></text></svg>