<svg id="Layer_1" data-name="Layer 1" xmlns="http://www.w3.org/2000/svg" viewBox="0 0 1466.49 1130"><defs><style>.cls-1{fill:#393185;}.cls-2{fill:#fefefe;}.cls-3{fill:#e5e0e0;}</style></defs><path class="cls-1" d="M1014.62,800.71A281.87,281.87,0,1,0,1097.15,1000a281,281,0,0,0-82.53-199.29M815.33,444.42c153.4,0,292.29,62.19,392.84,162.74S1370.91,846.6,1370.91,1000s-62.19,292.29-162.74,392.84-239.44,162.74-392.84,162.74S523,1493.38,422.49,1392.84,259.75,1153.4,259.75,1000,322,707.69,422.49,607.16,661.93,444.42,815.33,444.42Z" transform="translate(-259.75 -435)"/><path class="cls-1" d="M1414.12,1059.3l272,272a136.88,136.88,0,0,1-193.58,193.58L1310.1,1342.43a598.23,598.23,0,0,0,104-283.13m-104-401.75,182.47-182.46a136.88,136.88,0,0,1,193.58,193.58l-272,272A598.25,598.25,0,0,0,1310.11,657.55Z" transform="translate(-259.75 -435)"/><path class="cls-1" d="M735.58,859h-2.75q-28.3,1.6-31-36.55a2.65,2.65,0,0,1,2.29.69q13.79,13.11,17.5,14.27a23.37,23.37,0,0,0,14.83,1.79q11.57-.88,66-31.52,6.87-2.73,10.77-2.44,5.82-.08,13.87,3.29,54.66,30.4,62.84,28.87a19.47,19.47,0,0,0,13.38-2.17A21.5,21.5,0,0,0,908,831.4l9.13-11.22q5,36.44-33.29,36.6,2.6,1.53,12.7,15.59a14.69,14.69,0,0,0,6.33,3.65A21,21,0,0,0,917,874.79l20.64-14.7a49.22,49.22,0,0,1,16.16-5.28q34.88-4.32,51.46,3.52,19.74,12.63,17,24.72-4.8,19.1-27,35.75-24.5,18.13-35.55,19.91a23.28,23.28,0,0,1-12.28-.58q-2.53-.25-22.12-11.27c-3-1.24-5.25-1.79-6.59-1.67q-6.82-.68-14.74,13.06,30.48,45.32,80.29,76,17.44,10.88,29.48,14.67l58.77,14.3A258.71,258.71,0,0,1,847.4,1259.51q-9.31-47.52-15.93-63.84-6.65-18.8-23.87-38.8-20.24,1.29-29-4.27-10.17-5.47-25.11-19.74c-10.32-1.44-17.84-3.76-22.56-7q-6.62-5.46-7.69-10-4.12-9.36-1.94-28.84,3-18.66,13.88-40.35l-.56-22.09a58,58,0,0,0-3.83-18.59q-1.08-4.5-13-18.67a21,21,0,0,1-2.62-6.53,38.34,38.34,0,0,1-.8-10.58,23.87,23.87,0,0,1,3.24-11,4.8,4.8,0,0,0-.52-3l-2.4-4a15.88,15.88,0,0,1-11.08,3.06q10.5-4.68,12-8.11-8.26,7.85-20,1.05c6.5,0,10.94-1.76,13.36-5.25q-5.6-.86-8.21-4.68c3,1.26,5.62,1.63,7.73,1.14l-5-2.09,4.71.45L704.63,935q7.67,3.39,4.4-1.23-7.54-5.28-10.21-4.07l-21.66,10.25a28.16,28.16,0,0,1-8.8,2q-6.5.81-19.06-4.76-31.12-13.89-48.74-54.67-8.64-20.17,50.63-25.69,10.06-.42,23.92,4.57,11.14,3.89,31.34,19.71a8.5,8.5,0,0,0,5.54,1.11q2.26,3,23.59-23.26" transform="translate(-259.75 -435)"/><path class="cls-2" d="M854.29,845.89l1.5.91q9.26,4.71,10.85,11.44c.09.66-.34,1-1.3,1.12-5.61-.86-8.59-1-8.92-.48-1.48.68-1.64,2.22-.46,4.62a20.08,20.08,0,0,0,4.1,5q14.82,11.85,16.37,14.5c3.06,4.27,4.17,7.59,3.32,10a3.26,3.26,0,0,1-1.61,1.9,58.83,58.83,0,0,0-19.69,10q-10.63,8.31-15.65,16a57.67,57.67,0,0,0-8.09,16.27q-1.22,2.64-1.72,15.65a18.65,18.65,0,0,1-1.23,4.41,34.2,34.2,0,0,1-3.72,6.35l-14.48,18.34a19.26,19.26,0,0,0-3.51,10.47l.45,4.26,2.72,12.37.54,14.25a13.53,13.53,0,0,0,2,5.62,20.74,20.74,0,0,0,4.83,4.86q20.41,12.63,22.1,15.63,7.38,7.17,12.61,20.11,10.41,26.71,4.51,42.43-3.57,10.9-22.72,13l-36.54.27q-41.94,2.19-44.88,1.69-13.21-.3-18.88-4-9.16-7-10-16.88-1.21-6.62,6.08-39,3.46-11.37,6.82-14.85a30,30,0,0,1,4-4.09q12.81-9.21,13.6-10.71,4.27-4,9.53-13.43,7.74-12.85,6.91-33.09-3.28-35.34-15.58-61.58-6.86-15-13.83-21.9c-.59-.78-2.22-2-4.87-3.61q-1.08-1.1-9.64-2.83c-.37,0-.94-.44-1.69-1.31-1.14-1.88-.82-5,1-9.46a27.16,27.16,0,0,1,4.08-6q19.33-22.2,19.93-23.42a38.08,38.08,0,0,0,4.34-6.39c1.22-2.59.25-3.24-2.94-1.93a16.52,16.52,0,0,0-3.53,2.37l-6.34,5.75c-1.37-.3-1-2.08,1.07-5.31q6.43-8,14.78-10.45,20.46-8,65.66,7.57c.3,0,.19-.16-.31-.54l-4.86-3.38q-.64-.72-.24-.63l10.76,2.62-7.12-5.72c-2-2.58-2.73-4.28-2.08-5.12q6.9,6.62,9.46,6.94c.77.18,1.1,0,1-.45q-2.42-3.94-1.61-3.3,7.49,3.84,8.26,3.48a55,55,0,0,1,11.91,1.25c1.23.17,1.41-.8.52-2.9q0-.3,2.55,1.32" transform="translate(-259.75 -435)"/><path class="cls-2" d="M818.21,1147.4l.22-.13q10.55-6.51,14.25-11.07a5.87,5.87,0,0,0,1.47-3.54c.18-.59-.64-1.24-2.45-1.94a12.25,12.25,0,0,0-4.18-.38l-4,.31-5.52.27-13.65.93c-3.79.2-6.06.29-6.83.28-1.24,0-3.15,0-5.73,0-11.46-.32-17.95-.45-19.45-.35-3.28-.25-5-.35-5.2-.32a6.68,6.68,0,0,0-3.22.6q-2,1.6-1,3a6.25,6.25,0,0,0,1.21,1.27c2,1.63,3.54,2.8,4.6,3.52a113.41,113.41,0,0,0,11,6.46,66,66,0,0,0,6.61,3,47.26,47.26,0,0,0,4.54,1.5,36.75,36.75,0,0,0,4.61,1l2.31.26a27.48,27.48,0,0,0,5.63-.1q5.16-.75,14.77-4.5" transform="translate(-259.75 -435)"/><path class="cls-1" d="M836.91,1072.67l0,.28q-.3,6.32-6.68,14.28a21.45,21.45,0,0,1-4.66,4.14,31.56,31.56,0,0,1-6.74,3.25,3.49,3.49,0,0,0-1.5,1.36c-.6,1.43.05,2.57,2,3.45a8.1,8.1,0,0,0,3.14.79,19.36,19.36,0,0,0,3.52-.47.24.24,0,0,1,.22,0c-.21,1.78-2.13,2.6-5.73,2.45a15.91,15.91,0,0,1-9.36-5,9.1,9.1,0,0,1-1.59-8.14q1.74-6.21,4.64-9.05a10.25,10.25,0,0,1,3-1.77q-.69,0,10.73-3.19a3.22,3.22,0,0,0,1.57-1.08c.9-.94,1.16-2.67.76-5.19a6.1,6.1,0,0,0-2.78-4.08q-2-1.27-6.18-1.28l-11.66.44q-19.86,1.36-21,1.15-12.07,0-31.17-1.6a16.36,16.36,0,0,0-5.87.74,7.57,7.57,0,0,0-4.48,4.34,6.26,6.26,0,0,0,.82,6,5.12,5.12,0,0,0,2.28,2,3.45,3.45,0,0,0,1.24.12c2.47-.45,3.91-.59,4.33-.4a17.43,17.43,0,0,1,5.71,2.47,14,14,0,0,1,6.31,9.65,11.31,11.31,0,0,1-2.13,9.31,9.64,9.64,0,0,1-8.54,4.39,26,26,0,0,1-4.51-.61c-.42-.11-.65-.3-.68-.57,0-.09.08-.15.2-.18a20.11,20.11,0,0,0,2.88-.69l1.64-.85c1.59-1,2.33-2.11,2.21-3.25a1.72,1.72,0,0,0-.69-.75l-2.8-1.2q-4.78-2.92-6.26-4.06a20.34,20.34,0,0,1-4.56-4.27q-4.77-6.24-3.85-15.62a13,13,0,0,1,4.08-8.17,22.73,22.73,0,0,1,9.63-3.54,49,49,0,0,1,8-.44q25,1.35,32.28,1.18,4.51.13,19.23-1.43c2.14-.14,4-.2,5.72-.15a32.78,32.78,0,0,1,6.8.79,14.25,14.25,0,0,1,5.7,3.22q4.43,4,4.85,11.11" transform="translate(-259.75 -435)"/><path class="cls-1" d="M746.13,1102.36l.25.43q3.48,6,6,6.71a11.24,11.24,0,0,0,8.22-.15q8.86-3.52,11.14-10.12c.6-1.54.65-3.75.17-6.62l-.83-2.8-2.94-6.45a1.07,1.07,0,0,1,.59.18,46,46,0,0,0,4.28,2.47,17.88,17.88,0,0,0,2.6,1,19,19,0,0,0,7.09.51c1.12-.1,2.15-.24,3.1-.42l6-1.29,1.75-.12c2.68.08,4.36.08,5.08,0a14,14,0,0,0,3.09-.5,10.39,10.39,0,0,0,3.1-1.43,40.65,40.65,0,0,0,4.62-3.76,1.1,1.1,0,0,1,.49-.26c.27-.08.15.54-.35,1.87a94.43,94.43,0,0,0-3.82,9.26,21.25,21.25,0,0,0-.9,4.52q-.6,3.32,3.14,7.74,5.83,6,12,6.15a8.16,8.16,0,0,0,4.21-1.46,29.3,29.3,0,0,0,5.57-5.43c.3-.27.48-.33.58-.17.23.75-.39,2.47-1.84,5.16a17.41,17.41,0,0,1-3.53,4.34,15.65,15.65,0,0,1-9.76,4.24,10.11,10.11,0,0,1-2.94-.48l-5.14-2.08a15.63,15.63,0,0,0-1.83-.59,13.27,13.27,0,0,0-3.19-.38,26,26,0,0,0-3.78.25l-8.73,1.37c-1.38.16-2.67.24-3.86.26a26.37,26.37,0,0,1-3.71-.19,41.76,41.76,0,0,1-5.23-1.12,7.27,7.27,0,0,0-1.64-.09,5.86,5.86,0,0,0-1.81.38l-4.58,1.77a18,18,0,0,1-2.6.58,24.35,24.35,0,0,1-7.88-.37q-10.27-2.11-12.29-13" transform="translate(-259.75 -435)"/><path class="cls-2" d="M896.43,938.71l-.75-.45c-3.82-2.48-7.36-3.71-10.66-3.72a19.68,19.68,0,0,0-6.29.88,17.82,17.82,0,0,0-4.76,2.25A20,20,0,0,0,871.1,940a29.37,29.37,0,0,0-3.5,4.42,57.06,57.06,0,0,0-3.14,5.39l-6,12.2c-1.18,2.17-1.95,3.08-2.34,2.76-.68-1.15-.62-4.18.18-9.07,1-5.13,2-8.62,3.18-10.5a23.91,23.91,0,0,1,4.7-6.27,61.8,61.8,0,0,1,9.37-7.43q7.26-4.72,12.34-2.84a14.16,14.16,0,0,1,4.49,3,58.12,58.12,0,0,1,6.09,7.05" transform="translate(-259.75 -435)"/><path class="cls-2" d="M881.83,941.8v-.08a6.5,6.5,0,0,0-.34-1.18,3.86,3.86,0,0,0-.78-1.08,4.22,4.22,0,0,0-.36-.27l-.18-.11a1.74,1.74,0,0,0-.4-.15,2.61,2.61,0,0,0-.42,0,4,4,0,0,0-.7.08,4.92,4.92,0,0,0-1.34.57c-.23.12-.86.53-1.87,1.24l-1.42.83a4.8,4.8,0,0,0-.53.39,1.45,1.45,0,0,0-.65,1.46c.08.37.57.67,1.47.89.71.14,1.48.32,2.3.54l.74.14a4.64,4.64,0,0,0,1.66,0,2.83,2.83,0,0,0,.87-.29,3.49,3.49,0,0,0,.93-.74,5.46,5.46,0,0,0,.67-1,5.72,5.72,0,0,0,.36-1.23" transform="translate(-259.75 -435)"/><path class="cls-2" d="M884.93,942.9h0a12.32,12.32,0,0,0-1.11.91,19.33,19.33,0,0,0-1.6,1.81,6,6,0,0,0-.41.62l-.16.33a2.82,2.82,0,0,0-.24.69l0,.35v.29l.08.28.13.26a2.79,2.79,0,0,0,1,.89,4,4,0,0,0,1.27.48,1.27,1.27,0,0,0,.53,0,.89.89,0,0,0,.29-.15l.13-.13a1.41,1.41,0,0,0,.21-.31,3.89,3.89,0,0,0,.38-.93,10.59,10.59,0,0,0,.24-1.09c0-.1,0-.42.07-.94a6.51,6.51,0,0,0,0-.94c0-.48-.06-.84-.1-1.09a5.58,5.58,0,0,0-.62-1.37" transform="translate(-259.75 -435)"/><path class="cls-2" d="M857.81,976l0-.12a54.9,54.9,0,0,1,3.84-9.59,10.23,10.23,0,0,1,3.65-4.16,6.37,6.37,0,0,1,1.73-.56,11.6,11.6,0,0,1,2.68-.16c.26,0,1,.08,2.39.25,2.71.43,4.31.66,4.81.69l4.19.24a11,11,0,0,0,1.45,0,7,7,0,0,0,2-.31,10.64,10.64,0,0,0,1.87-.95,1,1,0,0,1,.35-.11.15.15,0,0,1,.16.09l.06.57-.1.55a2.87,2.87,0,0,1-.59,1l-.46.46a7.44,7.44,0,0,1-1.13.82,11.58,11.58,0,0,1-6.13,1.64c-.34,0-2.1-.07-5.26-.34a18.18,18.18,0,0,0-2.2,0,10.31,10.31,0,0,0-3.74,1,16.43,16.43,0,0,0-4,2.65,20.5,20.5,0,0,0-2.18,2.3c-1.53,2.1-2.42,3.23-2.63,3.42s-.4.41-.62.61a.3.3,0,0,1-.24,0" transform="translate(-259.75 -435)"/><path class="cls-2" d="M896.46,993.19l0,.16c.26.58.27,2.56,0,5.94q-.24,3.45-1.71,17.31l-1.21,13.83c-.27,3.1-.6,6.2-1,9.28a102.38,102.38,0,0,1-3.76,18,62.87,62.87,0,0,1-3.36,8.4,121,121,0,0,1-8.37,13.58,43,43,0,0,1-9,9c-1.19.75-1.85.53-2-.65a5.3,5.3,0,0,1,1.18-4.07,64.55,64.55,0,0,0,11.3-14,71.62,71.62,0,0,0,6.59-13.53,68.8,68.8,0,0,0,3.16-15.46c.25-2.65.44-5.32.54-8l.46-16.09.19-4a48.42,48.42,0,0,1,.76-6.13,47.26,47.26,0,0,1,3.45-10.7c.87-2,1.77-3,2.71-3" transform="translate(-259.75 -435)"/><path class="cls-2" d="M890.74,948.2v0c-.08.09-.54,1.33-1.38,3.71-.3.8-.51,1.32-.64,1.59a23.81,23.81,0,0,1-1.58,2.87,12.45,12.45,0,0,1-1.64,2c-.66.66-1.8,1.64-3.38,2.95a19.8,19.8,0,0,0,4.07-2.32,11,11,0,0,0,2.72-2.9,15.55,15.55,0,0,0,1.28-3.57c.19-.83.36-1.75.5-2.74.07-.61.11-1,.12-1.23a.44.44,0,0,0-.06-.34" transform="translate(-259.75 -435)"/><path class="cls-2" d="M896.82,947.73v0c.11.52.31,1.21.6,2.11l1.42,4.2.69,2.12.32,1.09.49,1.81c.33,1,.6,1.91.82,2.78.1.32.32,1.31.65,3l.72,4,.38,1.84c0,.29.07.49.08.62a3.88,3.88,0,0,1,0-.6c.1-1,.15-1.73.16-2.16,0-.88,0-1.6,0-2.17a39.17,39.17,0,0,0-.38-4.73c-.06-.52-.26-1.5-.58-3-.2-.67-.61-1.74-1.23-3.24q-1.29-2.92-2.35-4.86c-1.08-2-1.69-2.92-1.82-2.84" transform="translate(-259.75 -435)"/><path class="cls-2" d="M746,971.46l-.13-.06c-.72-.42-1.29-.78-1.69-1a31.21,31.21,0,0,0-3-2.06,7.91,7.91,0,0,0-2.86-1,13.14,13.14,0,0,0-3.38,0c-.62.07-1.23.18-1.84.3l-3.69.75-.94.16c-.61.1-1.23.18-1.85.23l-.94,0a5.91,5.91,0,0,1-1.14-.14,7.26,7.26,0,0,1-1.21-.37l-.57-.27a5.15,5.15,0,0,1-1.86-1.52,2.65,2.65,0,0,1-.42-1c-.08-.5,0-.78.16-.82a1,1,0,0,1,.49,0l1.4.45a4.77,4.77,0,0,0,.69.13,9.92,9.92,0,0,0,2.23-.07c.28,0,.75-.12,1.41-.25,2.26-.52,3.77-.88,4.51-1.06l1.7-.44,3.54-1a6.3,6.3,0,0,1,2.39-.18q2,.26,4.76,3.71a25.66,25.66,0,0,1,2.31,3.92c.31.91.27,1.47-.12,1.67" transform="translate(-259.75 -435)"/><path class="cls-2" d="M750.42,965.86h0c-.21.06-.68-.48-1.41-1.64a80.77,80.77,0,0,1-3.88-7.11,22.07,22.07,0,0,1-1-2.72c-.88-3.14-1.45-5-1.68-5.61a18.59,18.59,0,0,0-.75-1.78,12.74,12.74,0,0,0-3.43-4.26q-7.3-5.46-12.2-6.61a13.49,13.49,0,0,0-3.85-.44,30.19,30.19,0,0,0-6.62,1.17,1.36,1.36,0,0,1-1.08-.3c-.17-.45.39-1.2,1.7-2.26a9,9,0,0,1,3.25-1.64,16.74,16.74,0,0,1,7.83.52,27.86,27.86,0,0,1,5,1.93A13.06,13.06,0,0,1,735,937q2.65,2.19,8.61,10.27a34.12,34.12,0,0,1,4.3,7.89q2.57,7.71,2.55,10.75" transform="translate(-259.75 -435)"/><path class="cls-2" d="M725.16,945.07h0a4.81,4.81,0,0,1-.62-1.16,5.11,5.11,0,0,1-.22-1.26,2,2,0,0,1,.13-.81,1.38,1.38,0,0,1,.54-.72,1.57,1.57,0,0,1,.45-.22,3.11,3.11,0,0,1,.79-.19,5.27,5.27,0,0,1,.56,0l2-.11a3.21,3.21,0,0,1,1,.14,1.52,1.52,0,0,1,.72.49,1.25,1.25,0,0,1,.16.35,1.5,1.5,0,0,1,.08.6,8.59,8.59,0,0,1-.25,1.75,2.86,2.86,0,0,1-1,1.89,2.74,2.74,0,0,1-1.83.24,6.58,6.58,0,0,1-1.31-.33,7.88,7.88,0,0,1-1.18-.61" transform="translate(-259.75 -435)"/><path class="cls-2" d="M721.29,944.19h0a15,15,0,0,1,1.11,1.26,2.91,2.91,0,0,1,.24.31c.39.58.66,1,.82,1.27a4.36,4.36,0,0,1,.73,2.07,1.21,1.21,0,0,1-.48.71,2,2,0,0,1-1,.41,1.46,1.46,0,0,1-.45,0,2.26,2.26,0,0,1-.6-.21l-.3-.17a3.32,3.32,0,0,1-.55-.44,3.58,3.58,0,0,1-.78-1.13,2.72,2.72,0,0,1-.16-1.25,6.88,6.88,0,0,1,.51-1.92,2.93,2.93,0,0,1,.84-.9" transform="translate(-259.75 -435)"/><path class="cls-2" d="M716.39,949.3v0a31.65,31.65,0,0,0,1.28,4.87,12,12,0,0,0,1.67,3.57,10.95,10.95,0,0,0,4.12,3.54,19.45,19.45,0,0,0,1.83.79l.36.18a18.17,18.17,0,0,1-4.4-4.15c-.24-.34-.45-.68-.65-1s-.3-.56-.43-.84c-.51-.85-.84-1.42-1-1.7l-2.34-4.65-.29-.48a.25.25,0,0,0-.17-.12" transform="translate(-259.75 -435)"/><path class="cls-1" d="M895.77,932.44h0a38.8,38.8,0,0,0-13.61-2.05A20.09,20.09,0,0,0,872,933.93q-10.15,7.41-13.34,23.06,5-10.51,7.43-13.42a33.51,33.51,0,0,1,8.35-7.93,18.49,18.49,0,0,1,7.89-3.1,31.8,31.8,0,0,1,4.35-.3q-.07-.11,8,.32c.88,0,1.26,0,1.14-.12" transform="translate(-259.75 -435)"/><path class="cls-2" d="M913.43,958.93l2.24,2.76q35.51,47.38,81.66,66.49a58.4,58.4,0,0,0,11.44,35.88q23.31,30.81,42.2,42.59l-11.73,23.56q-1.27-24.32-13.71-37.27-13-9.95-23.76,1.91-7.74,8.94,3.25,49,4.26,18.48,14.5,17.32-25.74,29.36-40.41,39.68.48-12.78,2.69-17.84a30.91,30.91,0,0,1,3.48-6.65q9.15-11.85,10-14.16c1-1.51,1.72-4.25,2.09-8.2a40.93,40.93,0,0,0-.62-7.65q-6.16-30-7.26-38.46-.76-2.12-4.13-38.73a94.67,94.67,0,0,0-2.69-13.26q-3-11.62-13-27.06-14.13-20.31-21-23.6-5.67-2.37-5.19,7.16,1.23,17.89,7.89,31.3c.05.87-.77.21-2.44-2a56.2,56.2,0,0,1-7-14.76q-1.24-2.67-8.75-30.62a90.69,90.69,0,0,0-3.6-9.9q-4.95-11-16.24-27.51" transform="translate(-259.75 -435)"/><path class="cls-2" d="M889.11,1229.21l-1.19-1.22a77.92,77.92,0,0,1-9.9-11.75,44.51,44.51,0,0,1-2.64-4.62L869.76,1200a25.34,25.34,0,0,0-4.47-5.78q-5.07-5.32-22.78-10l10.82,59.15c1.14,6.4,1.62,9.94,1.44,10.65q-.56-.6-2.65-8.16l-11.51-42q-2.21-7.29-3.73-10.92-3.15-10.38-22.15-37,12.63-6.24,16.93-10.47,4.65-4,9.93-14.35,14.53-5.05,20.54-11.13a21.28,21.28,0,0,0,5.09-10,76.26,76.26,0,0,0,1.68-14.38q15.57-15,20.91-24.76,5.45-10.68,7.55-25.62,1.07-5.91,2.66-21.52,1.46-14.61,2.34-37.55c0-1.53.31-2.24.78-2.15a85.46,85.46,0,0,1,5.46,22.6c.29,1.07.4,7,.29,17.66q1.71,26.63,1.14,28.33a38.88,38.88,0,0,1-1.29,8.9l-4.21,11.8a24.68,24.68,0,0,0-.83,3.39,31.58,31.58,0,0,0-.22,7.79l1.48,12.39a26.68,26.68,0,0,1,.18,5.1,13,13,0,0,1-.82,3.76q-4.11,7.45-4.49,11.12-.36-1.38-1.23,19.29a51.32,51.32,0,0,1-1,7.28,21.67,21.67,0,0,1-3,7.36q-1.33,2.7-9.89,9.86a8.91,8.91,0,0,0-2,4.91q-.59,2.1.72,15.11,1.51,14.87,5.61,48.59" transform="translate(-259.75 -435)"/><path class="cls-1" d="M785.6,911.59c1.42,3.46,4,10.48,4.21,11.32s.52,1.76.79,2.78.64,2.12.94,3.33.56,2.47,1.12,5.38,1,6.06,1.4,9.47.68,7.06,1,9.94.29,2.88.28,1a68.63,68.63,0,0,0,.49-7.48c0-3.63-.15-7-.37-10.21a44.13,44.13,0,0,0-1.17-7.4c-.33-1.31-.68-2.51-1-3.62s-.67-2.14-1-3.06a29.62,29.62,0,0,0-2.86-4.94c-3.63-6.53-2.17-3.1-3.78-6.47" transform="translate(-259.75 -435)"/><path class="cls-1" d="M773.35,908.57c.29.89.77,2.8,1.3,4.87s1,4.27,1.56,6.64a69.1,69.1,0,0,0,1.84,7,48.91,48.91,0,0,1,1.58,5.93q.58,2.84,1,5.75a46.29,46.29,0,0,1,.46,5.39v.5s0-2-.05-4-.07-3.94-.17-5.89-.3-3.91-.53-5.85a39.8,39.8,0,0,0-1.39-7.1c-.79-2.44-1.61-4.68-2.45-6.77s-1.71-4-2.18-4.87c-.82-1.76-.63-.83-1-1.69" transform="translate(-259.75 -435)"/><path class="cls-1" d="M849.76,873.74a19.22,19.22,0,0,0-3.79,1.59,24.9,24.9,0,0,0-4.65,3.35,43.73,43.73,0,0,0-5,5.37,49.19,49.19,0,0,0-4.82,8,59.31,59.31,0,0,0-3.36,7.65c-.84,2.39-1.46,4.6-1.84,6.18s-.38,1.58-.13.52a34.09,34.09,0,0,1,1.4-4.28,47.12,47.12,0,0,1,3.59-6.88c1.48-2.41,3.24-4.94,5.19-7.64s3.32-4.59,4.65-6.25a35.05,35.05,0,0,1,4-4.23,28.41,28.41,0,0,1,3.37-2.52c1.39-.68.62-.56,1.34-.81" transform="translate(-259.75 -435)"/><path class="cls-1" d="M853.57,884.7a18.9,18.9,0,0,0-3.81,1.11,19.48,19.48,0,0,0-4.3,2.52,27.51,27.51,0,0,0-3.87,3.61,29.81,29.81,0,0,0-2.79,4.11c-.86,1.36-1.68,2.77-2.48,4.19s-1.58,2.87-2.09,3.92a12.85,12.85,0,0,0-.93,2.29,18,18,0,0,0-.43,2,16.06,16.06,0,0,0-.2,1.89c0,.54,0,.54,0,.18,0,0,0-.71.11-1.4a9,9,0,0,1,.43-2,9.28,9.28,0,0,1,.82-1.78c.31-.55,1.21-1.93,2.13-3.28s1.85-2.66,2.82-3.95,1.95-2.52,2.94-3.73,2.08-2.63,3.24-3.86a21.68,21.68,0,0,1,3.65-3.19,36,36,0,0,1,3.35-1.94c1.45-.56.67-.49,1.42-.69" transform="translate(-259.75 -435)"/><path class="cls-1" d="M741.1,893a6,6,0,0,1,.8-.29l1-.26c.33-.07.68-.15,1.28-.24s1.42-.21,2.14-.3,1.32-.18,1.84-.23a4.38,4.38,0,0,0,1.36-.28,4.56,4.56,0,0,1,1.38-.26l1.34-.06c.43,0,.84,0,1.26,0s.89.06,1.38.12a15.2,15.2,0,0,1,1.52.31c.54.12,1.09.26,1.52.38s.42.12.13,0c0,0-.56-.17-1.1-.3s-1.07-.26-1.57-.37-1-.22-1.43-.3a12.43,12.43,0,0,0-1.27-.21c-.41-.06-.85-.1-1.32-.13s-.94,0-1.45-.05-.91-.26-1.4-.19-1,.19-1.71.34-1.38.36-2.21.59l-1.51.48c-.34.13-.66.29-1,.43a6.24,6.24,0,0,0-.74.45c-.3.17-.1.2-.25.28" transform="translate(-259.75 -435)"/><path class="cls-1" d="M742.5,887.49l.6-.24c.33-.13.8-.3,1.39-.56l1.85-.8c.54-.23.82-.32,1.09-.42s.53-.17.77-.25A8.07,8.07,0,0,1,749,885c.34-.08.83-.2,1.37-.29a11.76,11.76,0,0,1,1.76-.18,8,8,0,0,0,2-.24,8.27,8.27,0,0,1,2-.23c.66,0,1.29,0,1.91.05s1.2.12,1.6.17a8.93,8.93,0,0,1,1.19.24c.49.13,1.19.33,2,.63s1.9.69,2.77,1l.3.12-2.13-.85c-1-.4-1.75-.74-2.35-1a12.85,12.85,0,0,0-1.3-.48c-.26-.07-.83-.24-1.43-.37s-1.24-.25-1.9-.34-1.35-.13-2.06-.17a11.3,11.3,0,0,0-2.15-.12c-.68.11-1.31.26-1.91.39s-1.14.29-1.65.44-.75.25-1,.35a7,7,0,0,0-.74.35,9,9,0,0,0-.81.42c-.27.15-1,.62-1.66,1l-1.52.93c-.38.24-.65.38-.74.43s-.05.19-.1.21" transform="translate(-259.75 -435)"/><path class="cls-1" d="M748.52,876.09c.73-.12,2.19-.14,3.59-.18a29.18,29.18,0,0,1,4.1.2c1.34.15,2.65.42,4.26.74a39.27,39.27,0,0,1,5,1.36,32,32,0,0,1,4.36,1.81,17.83,17.83,0,0,1,3.07,2.05l.24.2s-1-.8-2.07-1.58a31.58,31.58,0,0,0-3.85-2.33c-1.45-.76-3.1-1.47-4.88-2.24a16,16,0,0,0-4.62-1.19,20.9,20.9,0,0,0-4.26,0,16.68,16.68,0,0,0-3.56.65c-1.42.42-.67.38-1.39.54" transform="translate(-259.75 -435)"/><path class="cls-3" d="M959.71,899.72h-.05c-.11,0,0,.2.37.5l4.17,3.41c-.61-.13-.69.07-.25.63q3,3.39,5.85,6.27a63.44,63.44,0,0,0-6.45-5.15c-.27-.14-.35-.13-.26,0l5.14,5.24a97.57,97.57,0,0,0-10.12-6.86q-4.4-2.56-5.46-2.17c-.25.2.09.77,1,1.74,2.32,2.24,5,4.69,7.85,7.33-1.15-.79-1.45-.86-.87-.21s1.05,1,1.36,1.33l2.47,2.22c-3.77-2.75-5.72-3.66-5.83-2.75a2.71,2.71,0,0,0,.68,1.42l4.52,5.87L955.65,913c-.26,0-.2.22.16.71a60.71,60.71,0,0,1,4.93,5.6c-3.61-2.6-5.74-4.08-6.41-4.41a5.64,5.64,0,0,0-2.53-1.08c-.2.23-.12.57.25,1l5,5.23q-4-2.68-5.34-3.43c-1.12-.63-1.76-.84-1.92-.62-.24,0-.09.38.46,1l4.52,4.65c-3.25-2.42-5.13-3.78-5.64-4.11q-1.54-1-1.44-.48l5.34,5.58a107.92,107.92,0,0,0-8.63-6.92c-1.35-.73-1.65-.66-.91.2,1.57,1.62,3.54,3.43,5.89,5.46-1.94-1.52-4.08-3.08-6.39-4.7a6.21,6.21,0,0,0-2.17-1.16c-.11.14.11.48.67,1l4.94,4.64-6.15-4.4c-.71-.47-1-.58-1-.34a20,20,0,0,0,1.72,1.8q.75.78,5.43,5.1c-2.73-2.26-5.76-4.59-9.06-7-1.61-1.14-2.66-1.72-3.14-1.71l-.11.17.2.37a22.76,22.76,0,0,0,2.45,2.31c1.74,1.43,4.28,3.41,7.67,5.92q-9.54-6.85-10.86-7.61c-.62-.27-.86-.31-.69-.13L939,922a64,64,0,0,0-11-7.43c.42.67,3.41,3.54,9,8.58l1.55.7a15.14,15.14,0,0,0,1.93,1.19,16.25,16.25,0,0,0,2.72,1.11,53.8,53.8,0,0,1,6.71,1.53,49.54,49.54,0,0,0,5.23.38,23.09,23.09,0,0,0,13.27-5.38l1.38-1.24a44.76,44.76,0,0,0,2.84-4.22,10.06,10.06,0,0,0,1.53-4q.15-2.1-4.85-7a38.84,38.84,0,0,0-9.65-6.51" transform="translate(-259.75 -435)"/><path class="cls-3" d="M970.41,908.13q-1.81-4.54-10.25-10.26,6.87,2.6,17.54,11c.4.13-.21-.44-1.81-1.7a41.74,41.74,0,0,0-3.67-2.72,98.14,98.14,0,0,0-11.48-6.7q2.68.45,16.94,8.23c.79.38,1.12.41,1,.09a53.49,53.49,0,0,0-8.19-5.69c-.76-.43-1.85-1-3.28-1.65-.7-.37-2.84-1.24-6.4-2.61-.23-.1-.3-.18-.22-.26.34-.13,3,.74,7.81,2.59,1.93.74,5.92,2.63,11.93,5.67.75.36,1.13.4,1.11.07q-2.08-2.64-7.92-6.34a92.13,92.13,0,0,0-10.33-5.08,12.7,12.7,0,0,1,3.31,1q3.74,1.53,14.72,6.76c1.59.69,2.73,1.16,3.44,1.42.35.14.54.13.57,0q-5.25-4.31-22.94-12.19a25.29,25.29,0,0,1,5.74,1.52l17.3,6.66q.65-.42-6.21-3.72-1.37-.87-14.5-6.5.25-.39,6.06,1.72,17.22,7.08,17.21,6.59l-4.42-2.29-14.82-6.11c-1.76-.73-2.59-1.17-2.49-1.33a13.89,13.89,0,0,1,4.19,1L990,894.54c.12-.09,0-.22-.23-.41-.78-.52-1.72-1.09-2.83-1.69l-17.38-9c.38-.19,2.07.23,5.1,1.26l17.51,6.45c.57,0-.23-.68-2.38-1.89L973.4,880.8c.28-.41,2.54.06,6.81,1.42q.78,0,13.31,5.27c.7.3.88.27.55-.08a64.13,64.13,0,0,0-8-4.61q-2.18-1.35-12.08-5.35c-.74-.34-1.07-.58-1-.71q6.21-.35,22.14,10.19-5.32-6.95-18.27-13.46a31.51,31.51,0,0,1,8.64,1.11,22.26,22.26,0,0,1,5.91,2.73q7.92,5.19,4.21,16.52-4.41,9.87-8.63,13.44a29.14,29.14,0,0,1-6.85,4.48,5.66,5.66,0,0,1-3.88.17Z" transform="translate(-259.75 -435)"/><path class="cls-3" d="M650.48,877.38h-.22a32.89,32.89,0,0,0-13.35,3,36.35,36.35,0,0,0-5.61,3.2L629.12,887a18.51,18.51,0,0,0-2,2.74,10.3,10.3,0,0,0-1.38,3.84,6.93,6.93,0,0,0,1.11,4.67,63.1,63.1,0,0,0,5.27,7.08c3.08,3.3,5,5.14,5.65,5.52,3,2.37,5.3,3.73,6.8,4.07a2,2,0,0,0,.87-.2q10.88-6.18,14.74-7.93,5.43-2.65,10.12-4.48l0-.13c.15-.41-.46-.55-1.81-.44a112.78,112.78,0,0,0-27.82,8.3,25.45,25.45,0,0,1,7-3.62c4.41-1.52,7.32-2.42,8.73-2.72l7.48-1.83q-2.18-1.07-14.09,1.14a32.25,32.25,0,0,0-10.7,4.59,34.06,34.06,0,0,1,9.25-4.48q2.84-1,13.44-3c1.15-.3,1.82-.62,2-1q.38-2-10.63-.79a41.48,41.48,0,0,0-12.75,3.47,26.15,26.15,0,0,1,3.41-2,38.36,38.36,0,0,1,8-2.78c1.13-.36,5.15-.79,12.07-1.32.45-.06.66-.19.62-.38-2.6-.75-6.73-.88-12.42-.37q-11.28,1.43-17.42,4.14l1.34-.8a42.2,42.2,0,0,1,12.75-4.79,51,51,0,0,1,15.61-.43q-4.21-1.65-16.43-.82a52.53,52.53,0,0,0-15.37,4.22,52.09,52.09,0,0,1,4.87-2.59l2.46-1.06a42.26,42.26,0,0,1,5-1.61,40.27,40.27,0,0,1,15.63-.93,8.34,8.34,0,0,0-1.47-.42q-4.32-.93-14.71.63a46.32,46.32,0,0,0-14.25,5.07,40.75,40.75,0,0,1,8.06-4.86,39.23,39.23,0,0,1,7.26-2.47l-2,.34c-3,.81-5.61,1.56-7.75,2.27a38.89,38.89,0,0,0-6,2.43q7.56-4.66,10.88-5.78a28.72,28.72,0,0,1,7.07-2.09q1.86-.44,11.86-1.54c.06-.14-.48-.26-1.61-.34-2.38-.13-4.72-.18-7-.17a60.54,60.54,0,0,0-7.7,1.24,54.78,54.78,0,0,0-13.8,5.61,19,19,0,0,1,3.66-3l2.2-1.24a30.66,30.66,0,0,1,5.11-1.92,51.82,51.82,0,0,1,13.12-1.69,24.35,24.35,0,0,0-9.7-.9,35.32,35.32,0,0,0-6.6,1.74,24.25,24.25,0,0,0-2.64,1.17,21.59,21.59,0,0,0-2.37,1.43l-1.1.81a55.24,55.24,0,0,1,5-3.62,42.33,42.33,0,0,1,5-2.72l2.47-1a27.86,27.86,0,0,1,10.21-1.81Zm1.94,9.91h-.74l-.75,0-.76.06-.76.09-.78.11a30.39,30.39,0,0,0-3.19.68c.6-.09,1.2-.18,1.78-.25l.86-.1,1.65-.15c.54,0,1.06-.08,1.58-.09l.75,0h1.63l.86,0,.83.06.8.09.76.11a15.68,15.68,0,0,1,2.74.68,19.46,19.46,0,0,0-3.1-.94l-.81-.14-.82-.11-.83-.09-.85-.05Z" transform="translate(-259.75 -435)"/><path class="cls-3" d="M650.13,914.62A121.43,121.43,0,0,0,670,903q-11,9.69-15.39,11.39a11.35,11.35,0,0,0,2-.86l9.66-4.8a21.36,21.36,0,0,0,4.69-3.6q-5.1,6.48-15.22,11.77c-.3.37.63.13,2.77-.73q5.36-2.19,14.13-9.43a40,40,0,0,1-6.35,6.08,57.5,57.5,0,0,1-9.47,6c-.26.15-.33.28-.21.38q.72.68,11-5a37.71,37.71,0,0,0,7.57-6.54q-3.45,5.67-14.8,13.47-.75,1.23,2-.25a42.83,42.83,0,0,0,6.27-4.33,31.51,31.51,0,0,0,7.48-8.24,65.69,65.69,0,0,1-6.48,7.26,83.79,83.79,0,0,1-7.9,6.76c-.1.09,0,.08.2,0a60.3,60.3,0,0,0,15.51-11.85q-1.74,3.07-16.64,14.13,12.79-7.91,17.44-12.89a56.62,56.62,0,0,1-13.84,12.78q10.62-6,16.56-12.29a27,27,0,0,1-5.27,7.5,67,67,0,0,1-9,7.29,13.59,13.59,0,0,0,2.68-1.58l12.73-8.58q.3-.21.21,0-1.78,2.21-15.84,12.29,2.07-.06,18.81-10.44a58.39,58.39,0,0,1-10.71,9.69q-4.11,3.1-7.27,3.22a9.64,9.64,0,0,1-3.94-1.16q-8.12-4.21-8.83-5.28-3.12-2.52-3.3-8.16Z" transform="translate(-259.75 -435)"/><path class="cls-2" d="M1305.09,1067.74c-.89,6.36-3.65,14.49-8.22,24.36a10.52,10.52,0,0,0-1,2.89,28.08,28.08,0,0,0,.9,5.77,9.21,9.21,0,0,1,.09,3.23q-.87,6.24-11.64,11.73c-7.19,3.69-13.75,5.14-19.71,4.3a13.1,13.1,0,0,1-8.32-4.33,9.85,9.85,0,0,1-2.52-8.06,11.24,11.24,0,0,1,2.35-5.82,110.87,110.87,0,0,1,10.25-9c7.93-6.43,12.43-13.25,13.43-20.4a13,13,0,0,0-1.33-8.64,8.07,8.07,0,0,0-6.14-4q-8.07-1.12-14.14,12.5-8.33,18.38-11.7,23.38-14.79,22-37.12,18.89-19.74-2.77-30-20.65-10.47-18.26-6.75-44.88a121.48,121.48,0,0,1,6.32-24.62c3.13-8.49,6.23-14.54,9.31-18.08,2.38-2.66,7-4.74,14-6.19a58.27,58.27,0,0,1,19.92-.85c3,.43,5.23,1.37,6.61,2.83a7.14,7.14,0,0,1,2.15,6.24c-.33,2.37-1.85,4.44-4.56,6.26-1.54,1.1-6.33,3.56-14.37,7.33q-5.65,2.7-10.14,9.68a37.32,37.32,0,0,0-5.58,15c-.63,4.58-.33,8.4,1,11.49s3.29,4.81,6,5.18a8.11,8.11,0,0,0,6.85-2.45c2.09-2,4.27-5.34,6.52-10.16,4-8.42,7.49-14.81,10.48-19.1a59.68,59.68,0,0,1,10.58-11.74q15-12.84,31.51-10.52a36.08,36.08,0,0,1,15.37,6,39.58,39.58,0,0,1,11.87,12.63q10.86,17.38,7.74,39.82m-17.78-212.53,10,47q3,14.29,5,20.72a67.9,67.9,0,0,0,5.15,12.26,12.62,12.62,0,0,1,1.17,2.89c.67,3.18-.42,6.36-3.33,9.52q-7.07,7.82-18.85,10.3c-4,.84-7.26.66-9.93-.5a8.29,8.29,0,0,1-4.87-6.19,8.09,8.09,0,0,1,.21-5c.58-1.31,2.13-3.23,4.58-5.72a20,20,0,0,0,6-11.95c.5-4.42-.24-11.31-2.24-20.72-1.5-7-3.68-11-6.5-12a12.18,12.18,0,0,0-5.71-.29c-2.28.35-8,1.48-17.32,3.44-3.67.78-5.81,1.89-6.42,3.29s-.41,4.69.69,9.89c.54,2.55,1.47,4.31,2.78,5.24s3.4,1.27,6.18,1a38.69,38.69,0,0,1,7.57-.2,7.38,7.38,0,0,1,4,1.77,6.9,6.9,0,0,1,2.62,4.14,8,8,0,0,1-2.21,7.17c-1.51,1.66-4.4,3.41-8.71,5.24a75.23,75.23,0,0,1-13.74,4.32q-14.49,3.07-24.67.54c-3.73-.94-5.92-3.09-6.62-6.43q-.67-3.13.67-4.65c.9-1,3-2.1,6.24-3.25q10.07-3.55,7.78-14.26c-.58-2.75-1.83-4.44-3.79-5.07s-5.29-.47-10,.52c-2.87.61-6.55,1.62-11,3a57.17,57.17,0,0,0-8.75,3.16c-1.72.85-2.68,2.66-2.83,5.33s.37,7,1.63,12.91c2,9.16,4.59,15.79,7.92,19.94s8.38,7,15.19,8.63c3.9,1,6.59,2,8.11,3.11a8.28,8.28,0,0,1,1,12,13.73,13.73,0,0,1-7.84,4.28c-3.65.78-8.44.81-14.34.1a70.15,70.15,0,0,1-16.14-3.85,21.08,21.08,0,0,1-4.89-2.58,6.18,6.18,0,0,1-1.8-3.28,39.42,39.42,0,0,1-.51-5.15,108,108,0,0,0-2-16l-16.47-77.6c-.67-3.13-.49-5.68.52-7.69a7.29,7.29,0,0,1,5.27-3.8,5.56,5.56,0,0,1,4.08.32,18.49,18.49,0,0,1,4.1,4.38,10,10,0,0,0,3.76,3.45,13.86,13.86,0,0,0,5.57,1c9.64,0,22.29-1.56,37.91-4.89q35.34-7.49,43.65-13.86a6.84,6.84,0,0,0,2.14-2.55,20.51,20.51,0,0,0,.74-5c.33-3.68,2.27-5.92,5.86-6.69a8.59,8.59,0,0,1,5.59.65,8.34,8.34,0,0,1,4,3.91C1284.6,843.81,1285.86,848.37,1287.31,855.21Zm-96.5-130.52-18.4,11.76-.68.48c-1.83,1.29-2.87,2.41-3.11,3.4s.23,2.27,1.37,3.88c3.17,4.5,6.62,6.94,10.38,7.34s8.2-1.18,13.32-4.79q14.74-10.43,7.33-20.9c-1.41-2-2.87-3.07-4.35-3.22S1193.24,723.14,1190.81,724.69Zm-35.83,32c-1.37-1.93-2.84-2.73-4.4-2.45s-4.46,1.94-8.74,5q-9.71,6.86-14.26,11.92a6.75,6.75,0,0,0-1.57,2.81,14.88,14.88,0,0,0,0,4.38c.46,4.25-.7,7.34-3.43,9.27-3.37,2.37-7.23,1.93-11.64-1.32s-10.2-10-17.37-20.11q-20-28.29-9.25-35.86a6,6,0,0,1,3.51-1.23,21.8,21.8,0,0,1,5.81,1.65,13.88,13.88,0,0,0,8.46.83c2.56-.63,6.41-2.53,11.59-5.72q5.68-3.42,39.16-27.08c7.08-5,11.64-8.77,13.71-11.27a10.55,10.55,0,0,0,2.31-8.52,17.68,17.68,0,0,1-.24-6.6,6.37,6.37,0,0,1,2.69-3.61,8,8,0,0,1,6.45-1.28,16,16,0,0,1,7.4,3.89,45.8,45.8,0,0,1,7.19,8.41c1.2,1.7,3.93,6.06,8.17,13.16.77,1.32,2.15,3.4,4.09,6.14,3.25,4.59,7.86,10.47,13.87,17.7,3.79,4.58,6.36,7.85,7.73,9.78q11.55,16.35,11.23,32.62c-.22,9.77-4.5,17.6-12.93,23.55a30.52,30.52,0,0,1-15.15,5.67,26.37,26.37,0,0,1-15.22-3.1c-2-1.08-3.5-1.2-4.62-.41q-2.24,1.57-1,6.3c1.85,6.71,1.67,12.7-.47,18s-6.92,11.29-14.25,18.08c-3,2.81-4.77,5-5.15,6.6s.07,4.26,1.38,8.06a5.32,5.32,0,0,1-.19,3.81,7.26,7.26,0,0,1-2.64,3.35,9.76,9.76,0,0,1-6.06,1.55,15.76,15.76,0,0,1-7.14-2.08q-7.51-4.32-15.4-15.48c-7-9.92-9.43-18.88-7.17-26.89a38,38,0,0,1,5.37-11.17,182.74,182.74,0,0,1,13.29-16.55c4-4.6,6.36-8.48,7.1-11.7S1157.19,760.14,1155,756.66Zm-66.86-142.57c-3.56-2.43-6.38-3-8.43-1.76-1.55.91-3.9,3.13-7.11,6.71a90.72,90.72,0,0,0-8.08,10.1c-1.31,1.9-1.59,3.63-.86,5.22s2.83,3.51,6.23,5.84c2.27,1.54,4.22,2.25,5.86,2.17a8.27,8.27,0,0,0,5.09-2.65q7.53-7.22,13-3.48,9.44,6.43-6,29-9.75,14.29-18.41,18.22-5.31,2.41-9.62-.52c-3-2.07-3.42-5.31-1.07-9.71a32.74,32.74,0,0,0,2.82-6.23,9.2,9.2,0,0,0-.09-4.59c-.65-2.75-2.54-5.23-5.82-7.47-2.29-1.56-4.16-2.22-5.53-2s-2.83,1.59-4.3,4c-.3.43-1.93,2.78-5,7.12-6.08,8.93-8.86,15-8.37,18.23a5.82,5.82,0,0,0,.88,2.79,45.1,45.1,0,0,0,4.41,4.41,6.34,6.34,0,0,1,2,4.41,7.94,7.94,0,0,1-1.41,5.07q-4.05,5.94-12.17,2.91-11.7-4.48-29.87-16.83c-10.63-7.25-17.5-12.86-20.68-16.84a10.22,10.22,0,0,1-2.29-6.09,9.68,9.68,0,0,1,1.64-6.1,8.19,8.19,0,0,1,6.22-3.81,33.41,33.41,0,0,1,5.58,1c3.65.82,7.18-.61,10.55-4.38q7.88-8.57,30.95-42.41,9.95-14.59,11.91-19.63a10,10,0,0,0-.78-9.35,21.37,21.37,0,0,1-3-6.43,6.32,6.32,0,0,1,1.31-4.48c1.55-2.27,4-3.42,7.22-3.43a17.25,17.25,0,0,1,9.75,3.32c2.06,1.41,5,3.6,8.7,6.62q12,9.6,29.49,21.57,28.06,19.13,38.88,24.2a24.36,24.36,0,0,1,2.11,1.22c1.8,1.23,2.84,3.44,3.08,6.61a36.77,36.77,0,0,1-6.27,23.83c-2.17,3.19-4.67,5.25-7.46,6.13a8.63,8.63,0,0,1-7.82-1.17,7.72,7.72,0,0,1-3.36-3.86c-.44-1.35-1.08-5.5-2-12.44a19.44,19.44,0,0,0-4.8-10.95C1102.58,625.15,1096.87,620.43,1088.12,614.09ZM850.9,598.55l-13.06,24.27a44,44,0,0,1-5.29,8.19,5.14,5.14,0,0,1-4.07,1.91,4.69,4.69,0,0,1-3.53-2.06c-.62-.78-2-3.63-4.11-8.53s-3.83-9.28-5.18-13.06L805.4,580.65c-1.41-4-3-6-4.89-6.19-2-.15-3.22,1.43-3.65,4.72-1,7.3-1.68,14.07-2.14,20.28-.47,6.47-.51,10.88,0,13.23a6.64,6.64,0,0,0,1.5,3.11,40.22,40.22,0,0,0,5.58,3.82c2,1.2,2.87,3.08,2.68,5.7q-.78,10.45-27.56,8.5c-15.06-1.11-22.33-5.08-21.83-11.85a5.16,5.16,0,0,1,1.45-3.68c.83-.74,2.92-1.74,6.29-3.06a7.87,7.87,0,0,0,4.41-3.52c.87-1.56,1.7-4.68,2.52-9.29.95-5,2-13.07,3.41-24.38s2.28-21,2.87-29.12q1.13-15.2-.8-20.77a7.55,7.55,0,0,0-1.7-2.95,20.17,20.17,0,0,0-3.88-2.72q-6.39-3.69-6-8.71a8.82,8.82,0,0,1,2.9-5.8,13.88,13.88,0,0,1,6.87-3.34,77.08,77.08,0,0,1,11.12-1.29,93.19,93.19,0,0,1,11.69,0c8,.59,13.55,1.67,16.73,3.22a9.36,9.36,0,0,1,3.64,2.8,35,35,0,0,1,3.54,6.82l16.78,37.17a47.63,47.63,0,0,0,3.84,7.52,4.51,4.51,0,0,0,3.28,1.56,4.8,4.8,0,0,0,3.42-1.15,21.52,21.52,0,0,0,3.79-5l15-24.7c1.87-3.16,3.07-5.26,3.63-6.21q5.28-9,10-11.75,6-3.6,21-2.48,26.42,1.93,25.52,14a8.44,8.44,0,0,1-1.34,4.29,17.64,17.64,0,0,1-4.5,3.64,14.69,14.69,0,0,0-6.11,9A194.83,194.83,0,0,0,910,573.25a338.28,338.28,0,0,0-.84,41.89c.16,3,.58,5,1.27,6.08s2.61,2.85,5.67,5.22a6.82,6.82,0,0,1,2.93,6.2q-.46,6.55-9.37,8.6a41.14,41.14,0,0,1-9.58,1.28c-3.3.08-8.37-.17-15.22-.64-10.51-.81-18.29-2.12-23.34-4-5.62-2.11-8.27-5.15-8-9.19a5.94,5.94,0,0,1,1.39-3.63,46.94,46.94,0,0,1,6.18-4.86c1.73-1.18,3-3.62,3.87-7.3s1.64-10,2.3-19c.36-5,.35-8.24,0-9.84a2.87,2.87,0,0,0-2.78-2.54c-1.72-.12-3.5.92-5.3,3.2S854.65,591.61,850.9,598.55ZM629.27,573l7.13,20.64.31.78c.83,2.07,1.67,3.35,2.58,3.81s2.26.3,4.1-.43c5.1-2,8.29-4.81,9.55-8.37s.77-8.26-1.55-14.07q-6.69-16.77-18.61-12c-2.25.9-3.64,2.07-4.14,3.48S628.33,570.23,629.27,573ZM652,615.26c-2.2.88-3.32,2.12-3.41,3.7s.84,4.8,2.78,9.67c2.94,7.34,5.7,12.92,8.26,16.64a6.64,6.64,0,0,0,2.38,2.18,14.92,14.92,0,0,0,4.25,1q6.36.82,8.21,5.5c1.52,3.83.19,7.48-4,11s-12.07,7.61-23.61,12.2q-32.19,12.83-37,.62a5.89,5.89,0,0,1-.37-3.7,21.2,21.2,0,0,1,2.95-5.26,14,14,0,0,0,2.78-8c0-2.64-1-6.83-2.85-12.61q-2-6.32-17.19-44.41c-3.2-8-5.8-13.37-7.76-15.95a10.52,10.52,0,0,0-7.75-4.25,17.32,17.32,0,0,1-6.47-1.3,6.4,6.4,0,0,1-2.89-3.46,8,8,0,0,1,.28-6.56,15.83,15.83,0,0,1,5.5-6.29,45.44,45.44,0,0,1,9.86-5c1.92-.77,6.81-2.41,14.71-4.87,1.46-.44,3.8-1.31,6.91-2.55q7.85-3.12,20.45-9.35c5.35-2.62,9.13-4.35,11.33-5.23q18.6-7.41,34.34-3.3c9.44,2.49,16.06,8.48,19.88,18.07a30.56,30.56,0,0,1,2,16.06,26.35,26.35,0,0,1-6.56,14.06c-1.52,1.67-2,3.13-1.49,4.41.68,1.69,2.64,2.49,5.91,2.39,6.95-.22,12.74,1.36,17.36,4.66s9.38,9.37,14.25,18.09c2,3.63,3.8,5.81,5.22,6.54s4.16.93,8.16.54a5.37,5.37,0,0,1,3.66,1.08,7.09,7.09,0,0,1,2.64,3.35,9.68,9.68,0,0,1,.1,6.26,15.84,15.84,0,0,1-3.69,6.45q-5.94,6.28-18.66,11.35c-11.26,4.49-20.55,4.76-27.81.7a38.36,38.36,0,0,1-9.61-7.82A189,189,0,0,1,672,625c-3.53-5-6.76-8.16-9.71-9.64S655.87,613.92,652,615.26ZM502.39,723.49l12.86-13.12c2.34-2.39,3-4.13,1.91-5.19-1.46-1.43-6.69-3.3-15.73-5.57a49.33,49.33,0,0,0-8.69-1.73,4.91,4.91,0,0,0-3.83,1.26c-1.56,1.6-1.39,4.4.56,8.37.23.59,1.17,2.79,2.85,6.59q4.06,9.48,5.39,10.79C498.83,726,500.39,725.54,502.39,723.49Zm37.17-54.76L579,682.6c3.68,1.22,6.31,1.83,7.87,1.79a9,9,0,0,0,5.16-2.13c3.66-2.73,6.85-2.73,9.6,0,3.26,3.2,3.67,7.44,1.26,12.77s-8,12.42-16.72,21.36c-9.88,10-17.6,17.1-23.21,21.12a14.18,14.18,0,0,1-7.65,2.92,8.09,8.09,0,0,1-6.36-2.39,6.09,6.09,0,0,1-2.1-4.06c-.06-1.41.51-3.35,1.73-5.87,1.32-2.77,1.14-5-.55-6.66-3-2.92-6.52-2.85-10.57.25a173.84,173.84,0,0,0-16.84,15.59c-5.82,5.94-8.94,9.8-9.36,11.68a7.59,7.59,0,0,0,.57,4.21,11.5,11.5,0,0,0,2.57,4.09c1,.94,1.78,1.39,2.45,1.29a24.22,24.22,0,0,0,5.09-2.31c3.46-1.93,6.37-1.72,8.79.65q7.93,7.78-10.7,26.86-10.59,10.8-17.07,14.44c-4,2.21-7.57,1.74-10.72-1.34a6.48,6.48,0,0,1-2.21-4.17,13.15,13.15,0,0,1,1.56-5.76,20.13,20.13,0,0,0,2.15-10.82q-.57-4.92-5.62-18l-11.39-29.68q-6.27-16.33-10.18-23.65a54.35,54.35,0,0,0-9.27-12.67c-3.79-3.8-6.21-6.62-7.29-8.53a14.39,14.39,0,0,1-1.61-7.12,22.27,22.27,0,0,1,6.86-16.36c4.4-4.49,10.39-7.08,17.94-7.72Q488.77,650.9,539.56,668.73Zm-155,134.9c-1.59,4-1.53,6.89.12,8.61,1.23,1.32,3.9,3.14,8.1,5.49a91.71,91.71,0,0,0,11.61,5.69c2.14.85,3.9.76,5.28-.3s2.82-3.52,4.34-7.35c1-2.55,1.29-4.61.85-6.2a8.22,8.22,0,0,0-3.69-4.38c-5.79-3.85-7.88-7.84-6.23-12q4.21-10.59,29.62-.48c10.71,4.26,18,9,21.79,14q3.51,4.65,1.58,9.5c-1.36,3.41-4.43,4.49-9.24,3.16A31.53,31.53,0,0,0,442,818a9.11,9.11,0,0,0-4.45,1.08c-2.55,1.22-4.56,3.61-6,7.3-1,2.57-1.26,4.54-.71,5.82s2.18,2.42,4.83,3.34l8,3.3c10,4,16.56,5.38,19.61,4.2a5.87,5.87,0,0,0,2.54-1.46,47.23,47.23,0,0,0,3.35-5.27,6.28,6.28,0,0,1,3.86-2.89,7.79,7.79,0,0,1,5.25.27q6.68,2.64,5.49,11.25-1.83,12.38-9.93,32.8c-4.76,12-8.74,19.88-11.93,23.85a10.31,10.31,0,0,1-5.45,3.57,9.75,9.75,0,0,1-6.32-.28,8.24,8.24,0,0,1-5.06-5.25,33.79,33.79,0,0,1-.29-5.65c0-3.74-2.15-6.87-6.56-9.35q-10.07-5.8-48.13-21-16.41-6.52-21.75-7.36a9.93,9.93,0,0,0-8.94,2.79,21.35,21.35,0,0,1-5.63,4.38,6.31,6.31,0,0,1-4.66-.31c-2.55-1-4.2-3.12-4.92-6.29a17.42,17.42,0,0,1,1.13-10.25q1.38-3.48,4.57-9.93,6.76-13.76,14.63-33.47Q377.09,771.66,379.7,760a21.15,21.15,0,0,1,.72-2.32c.81-2,2.74-3.53,5.79-4.44a36.65,36.65,0,0,1,24.61.93c3.6,1.43,6.15,3.41,7.61,6A8.64,8.64,0,0,1,419,768a7.83,7.83,0,0,1-3,4.12q-1.83,1.08-11.71,4.61a19.4,19.4,0,0,0-9.65,7.07C392.21,787.12,388.85,793.72,384.56,803.63Zm-36.7,214.5,10.77,8.8c3.9,3.23,7.28,4.65,10.11,4.31a9.87,9.87,0,0,0,4.51-1.8A38.63,38.63,0,0,0,379,1024L415,984.38a63.92,63.92,0,0,0,6-7.23,23.82,23.82,0,0,0,2.38-5.66c1-3.5,2.33-6.06,3.9-7.67a10.53,10.53,0,0,1,6.5-2.91q9.86-1.18,11.55,12.83l4.25,35.23a9.37,9.37,0,0,1-.9,5.9c-.87,1.52-3.2,4-7,7.56a279.93,279.93,0,0,0-20.55,21.92,97.16,97.16,0,0,0-6.41,8.16,6.42,6.42,0,0,0-1.25,4c.44,3.63,4,5,10.8,4.17,5.49-.66,9.14-2.29,11-4.89.26-.48.81-1.55,1.67-3.23,1.79-3.59,4.27-5.6,7.48-6q6.12-.73,9.77,7.13t6,27.16c1.38,11.45,1.68,19.9,1,25.33a10.82,10.82,0,0,1-2.73,5.87,8.57,8.57,0,0,1-5.27,2.72c-3.3.4-6.35-1.1-9.14-4.53a10.38,10.38,0,0,0-4.08-3.14,25.34,25.34,0,0,0-7-1.19q-10.73-.59-32.52,2-26,3.15-36.68,6.42a17.11,17.11,0,0,0-6.16,2.81,13.18,13.18,0,0,0-3.25,5c-1.55,3.71-4.1,5.78-7.62,6.21a8.89,8.89,0,0,1-7.56-2.41c-2.07-1.94-3.85-5.23-5.35-9.91a128.76,128.76,0,0,1-4.74-23.55c-1.17-9.7-1.09-17,.19-22,1.23-4.43,4.08-6.93,8.51-7.47a8.46,8.46,0,0,1,4.48.47,25.85,25.85,0,0,1,5.36,4.49c1,.88,3.18,1.54,6.57,2a37.93,37.93,0,0,0,9.8.11q7.8-.93,7.38-4.49a6.13,6.13,0,0,0-2.35-3.9,118.81,118.81,0,0,0-10.26-6.9q-9.5-5.94-12.63-5.55a11.93,11.93,0,0,0-4.8,2.38,9.47,9.47,0,0,1-4.13,1.71q-6.9.84-10.61-6.27t-5.9-25q-1.72-14.31-.69-21.4c.88-5.83,3.8-9,8.81-9.66a9.48,9.48,0,0,1,5.77,1.11,8,8,0,0,1,3.82,3.95c.6,1.24,1.19,4.23,1.81,8.92a20,20,0,0,0,2.07,7.24A24.65,24.65,0,0,0,347.86,1018.13Zm67.93,224.72q4,6.76,12.37,7.15a21.75,21.75,0,0,0,12.52-3.29q9.1-5.4,18.85-16.18a109.3,109.3,0,0,0,15.68-21.92,23,23,0,0,0,2.64-9.88,16.17,16.17,0,0,0-2.07-8.83,14.14,14.14,0,0,0-10.44-7.14c-4.54-.66-9.3.46-14.3,3.42a90.9,90.9,0,0,0-19.14,15.58,86.21,86.21,0,0,0-14.44,19.54,30.8,30.8,0,0,0-3.52,11.66A17.74,17.74,0,0,0,415.79,1242.85Zm-27.63,6.06q-12.27-20.69-9.59-43.18a70.62,70.62,0,0,1,11-29.47,67.37,67.37,0,0,1,22-21.62,59.64,59.64,0,0,1,41.4-7.56c12.69,2.06,24.23,7.69,34.71,16.92a80.63,80.63,0,0,1,15.94,19.19,73.86,73.86,0,0,1,10,30.08,62.64,62.64,0,0,1-6.9,36.61,65.47,65.47,0,0,1-25.19,26.33q-19.19,11.36-40.24,9.17-18.79-2-34.57-14.63A78.74,78.74,0,0,1,388.16,1248.91Z" transform="translate(-259.75 -435)"/><path class="cls-2" d="M1259.68,1217.82q-14.6,25.29-25,19.25a8.84,8.84,0,0,1-3.87-4,19.88,19.88,0,0,1-1.13-7.26,9.84,9.84,0,0,0-2.8-7q-2.67-2.66-12.29-8.2c-3.8-2.19-6.52-2.84-8.19-1.93a8.69,8.69,0,0,0-3.12,3.11c-1,1.61-3.33,5.45-6.86,11.56-3.21,5.57-4.93,9.18-5.11,10.89s.92,3.21,3.29,4.59c7.14,4.12,12.29,6.65,15.47,7.63s5.85.8,8-.49c2.72-1.6,4.77-2.52,6.17-2.7a6.73,6.73,0,0,1,4.42,1,9.92,9.92,0,0,1,4.57,6,14.46,14.46,0,0,1-.1,8.68q-2.82,9.59-10.16,22.34-8.61,14.89-15.44,20.41c-4.52,3.69-8.72,4.45-12.57,2.23-3.24-1.87-4.69-5-4.37-9.25a13.35,13.35,0,0,0-.39-5.75,14.52,14.52,0,0,0-4.13-4.41q-1.82-1.5-17.52-11.19t-25.08-15.13c-11-6.34-18.16-9.93-21.61-10.85a8.35,8.35,0,0,0-4.08-.41,35.52,35.52,0,0,0-6.18,3.22,6.48,6.48,0,0,1-7,.1q-6.13-3.54-4.71-12.54c1-5.93,4.59-14.41,10.92-25.37,5.55-9.61,10.62-16.17,15.15-19.67,4.12-3.16,8-3.72,11.63-1.63,3.07,1.77,4.56,4.77,4.47,9a10,10,0,0,0,.74,4.7,18.21,18.21,0,0,0,3.8,4.41,94.82,94.82,0,0,0,15.86,11.11c3.41,2,5.8,2.67,7.18,2.14s3.3-2.91,5.73-7.12c5.59-9.68,8.61-16.12,9.06-19.41.18-1.32-.69-2.75-2.66-4.21a85.92,85.92,0,0,0-9.28-6q-9.21-5.33-14.77-5.07c-1.2.08-3.12.85-5.75,2.29s-5.4,1.42-8.38-.3c-3.77-2.18-5.15-6.48-4.12-12.86s4.33-14.47,9.93-24.17c5.12-8.88,10.23-15.56,15.32-20.14a15.41,15.41,0,0,1,6.74-3.71,8,8,0,0,1,6.09.75,6.92,6.92,0,0,1,3.37,3.69c.48,1.41.62,4,.47,7.82a8,8,0,0,0,1,4.89,22.94,22.94,0,0,0,5.19,4.87,236.26,236.26,0,0,0,24.11,15.54c1.88,1.08,4.13,2.35,6.77,3.79q19.65,10.91,22.4,12.5c4.62,2.73,7.88,4.1,9.85,4.13s4.89-1.24,8.72-3.78c2.5-1.73,4.9-1.93,7.18-.62,5.44,3.15,6.16,10.65,2.17,22.42a110.4,110.4,0,0,1-9.07,20.06" transform="translate(-259.75 -435)"/><path class="cls-2" d="M932.19,717.59a306.89,306.89,0,0,0-233.33-.16l-.36.16a305.4,305.4,0,1,0,399.4,165.94l-.16-.37a306,306,0,0,0-66-98.82l-.4-.37a305.89,305.89,0,0,0-99.18-66.38M815.33,679.16a320.13,320.13,0,0,1,226.86,94l.41.44a321.27,321.27,0,0,1,69.25,103.72l.16.41A320.67,320.67,0,1,1,692.63,703.48l.41-.16A319.82,319.82,0,0,1,815.33,679.16Z" transform="translate(-259.75 -435)"/></svg>